STARTFONT 2.3
FONT -FontForge-Hanalei-Book-R-Normal--18-180-72-72-P-91-ISO10646-1
SIZE 18 72 72  2
FONTBOUNDINGBOX 23 24 -1 -5
COMMENT "Generated by fontforge, http://fontforge.sourceforge.net"
COMMENT "Copyright (c) 2012 by Brian J. Bonislawsky DBA Astigmatic (AOETI) (astigma@astigmatic.com), with ReservedFont Name "Hanalei""
STARTPROPERTIES 40
FOUNDRY "FontForge"
FAMILY_NAME "Hanalei"
WEIGHT_NAME "Book"
SLANT "R"
SETWIDTH_NAME "Normal"
ADD_STYLE_NAME ""
PIXEL_SIZE 18
POINT_SIZE 180
RESOLUTION_X 72
RESOLUTION_Y 72
SPACING "P"
AVERAGE_WIDTH 91
CHARSET_REGISTRY "ISO10646"
CHARSET_ENCODING "1"
FONTNAME_REGISTRY ""
CHARSET_COLLECTIONS "ISO8859-2 ISO8859-9 ISO8859-4 ISO10646-1"
BITS_PER_PIXEL 2
FONT_NAME "Hanalei-Regular"
FACE_NAME "Hanalei"
COPYRIGHT "Copyright (c) 2012 by Brian J. Bonislawsky DBA Astigmatic (AOETI) (astigma@astigmatic.com), with ReservedFont Name "Hanalei""
FONT_VERSION "1.000"
FONT_ASCENT 14
FONT_DESCENT 4
UNDERLINE_POSITION -2
UNDERLINE_THICKNESS 1
X_HEIGHT 11
CAP_HEIGHT 11
RAW_ASCENT 799
RAW_DESCENT 200
NORM_SPACE 4
RELATIVE_WEIGHT 40
RELATIVE_SETWIDTH 50
SUPERSCRIPT_X 0
SUPERSCRIPT_Y 8
SUPERSCRIPT_SIZE 11
SUBSCRIPT_X 0
SUBSCRIPT_Y 2
SUBSCRIPT_SIZE 11
AVG_LOWERCASE_WIDTH 97
AVG_UPPERCASE_WIDTH 95
ENDPROPERTIES
CHARS 366
STARTCHAR space
ENCODING 32
SWIDTH 200 0
DWIDTH 4 0
BBX 1 1 0 0
BITMAP
00
ENDCHAR
STARTCHAR exclam
ENCODING 33
SWIDTH 257 0
DWIDTH 5 0
BBX 4 14 0 -1
BITMAP
14
51
11
11
11
55
11
11
51
15
15
51
15
04
ENDCHAR
STARTCHAR quotedbl
ENCODING 34
SWIDTH 476 0
DWIDTH 9 0
BBX 8 9 0 5
BITMAP
0404
5616
5111
5111
5565
4111
4151
5656
0004
ENDCHAR
STARTCHAR numbersign
ENCODING 35
SWIDTH 1076 0
DWIDTH 19 0
BBX 19 13 0 0
BITMAP
1541505510
1181151654
1151110158
1121125544
2556511044
1105111044
1245111658
1181125104
25A5511554
1111505510
1110609550
5104604010
1606A05550
ENDCHAR
STARTCHAR dollar
ENCODING 36
SWIDTH 453 0
DWIDTH 8 0
BBX 8 17 0 -3
BITMAP
0550
0410
0528
0691
5441
4054
5680
5160
1505
0141
0699
5045
4064
1910
0410
0550
0140
ENDCHAR
STARTCHAR percent
ENCODING 37
SWIDTH 889 0
DWIDTH 16 0
BBX 16 13 0 0
BITMAP
14400000
64205400
45544400
44511000
44525000
55451000
50551954
05545505
00055165
00044511
00045551
00105411
00050558
ENDCHAR
STARTCHAR ampersand
ENCODING 38
SWIDTH 627 0
DWIDTH 11 0
BBX 12 14 0 -1
BITMAP
069950
094410
0455A0
041810
015440
020500
054500
148114
51A554
429141
945494
505450
554540
100000
ENDCHAR
STARTCHAR quotesingle
ENCODING 39
SWIDTH 246 0
DWIDTH 4 0
BBX 4 8 0 6
BITMAP
04
56
51
51
55
41
41
56
ENDCHAR
STARTCHAR parenleft
ENCODING 40
SWIDTH 387 0
DWIDTH 7 0
BBX 7 15 0 -1
BITMAP
0150
0110
0410
1850
1140
1140
8100
4500
9600
1040
1550
0820
0108
0104
00A4
ENDCHAR
STARTCHAR parenright
ENCODING 41
SWIDTH 386 0
DWIDTH 7 0
BBX 7 15 0 -1
BITMAP
1500
1100
1140
1490
0510
0510
0108
0144
0158
0410
1550
2080
8100
4500
6800
ENDCHAR
STARTCHAR asterisk
ENCODING 42
SWIDTH 517 0
DWIDTH 9 0
BBX 9 9 0 4
BITMAP
015000
011000
555540
425440
150540
055400
155100
151500
000400
ENDCHAR
STARTCHAR plus
ENCODING 43
SWIDTH 458 0
DWIDTH 8 0
BBX 8 8 0 2
BITMAP
0150
0510
1665
4051
4041
1665
0410
0150
ENDCHAR
STARTCHAR comma
ENCODING 44
SWIDTH 228 0
DWIDTH 4 0
BBX 5 6 -1 -3
BITMAP
0500
0540
1040
4100
5500
1400
ENDCHAR
STARTCHAR hyphen
ENCODING 45
SWIDTH 465 0
DWIDTH 8 0
BBX 8 4 0 4
BITMAP
1595
4041
4041
1555
ENDCHAR
STARTCHAR period
ENCODING 46
SWIDTH 202 0
DWIDTH 4 0
BBX 3 4 0 -1
BITMAP
54
44
54
10
ENDCHAR
STARTCHAR slash
ENCODING 47
SWIDTH 453 0
DWIDTH 8 0
BBX 8 13 0 0
BITMAP
0010
0055
0041
0144
0244
0114
0410
0810
1540
1040
5100
4100
1500
ENDCHAR
STARTCHAR zero
ENCODING 48
SWIDTH 646 0
DWIDTH 12 0
BBX 12 13 0 0
BITMAP
00A400
010900
051540
092050
108550
514604
990142
810282
504A24
152050
054040
014100
005800
ENDCHAR
STARTCHAR one
ENCODING 49
SWIDTH 400 0
DWIDTH 7 0
BBX 7 14 0 -1
BITMAP
0150
0608
5104
4204
8654
1104
0104
0104
0254
0104
0104
0104
0254
0040
ENDCHAR
STARTCHAR two
ENCODING 50
SWIDTH 502 0
DWIDTH 9 0
BBX 9 13 0 0
BITMAP
010000
056400
141400
518100
411040
142540
009540
025500
081400
205000
619640
454040
555540
ENDCHAR
STARTCHAR three
ENCODING 51
SWIDTH 456 0
DWIDTH 8 0
BBX 8 14 0 -1
BITMAP
1400
5560
4008
1655
0644
0450
2550
1814
050A
0292
5441
4055
5540
1000
ENDCHAR
STARTCHAR four
ENCODING 52
SWIDTH 514 0
DWIDTH 9 0
BBX 9 14 0 -1
BITMAP
005500
016540
010500
081100
156500
105100
426640
441040
541540
056100
001100
005100
005600
000400
ENDCHAR
STARTCHAR five
ENCODING 53
SWIDTH 500 0
DWIDTH 9 0
BBX 9 13 0 0
BITMAP
044500
169500
114140
125500
510000
659500
104640
156040
001440
101440
559640
404140
555600
ENDCHAR
STARTCHAR six
ENCODING 54
SWIDTH 520 0
DWIDTH 9 0
BBX 10 14 0 -1
BITMAP
054000
042000
041000
044000
154000
10A000
104900
214540
555450
412650
424180
410500
595000
014000
ENDCHAR
STARTCHAR seven
ENCODING 55
SWIDTH 423 0
DWIDTH 8 0
BBX 8 13 0 0
BITMAP
1104
5655
4102
5599
0144
0154
0104
0110
0550
0410
0440
1040
1980
ENDCHAR
STARTCHAR eight
ENCODING 56
SWIDTH 527 0
DWIDTH 10 0
BBX 10 14 0 -1
BITMAP
104100
156580
501580
66A440
105040
055100
081100
090800
105500
119100
426080
441450
295AC0
040000
ENDCHAR
STARTCHAR nine
ENCODING 57
SWIDTH 500 0
DWIDTH 9 0
BBX 9 13 0 0
BITMAP
000400
065640
554140
406540
86A100
918500
104100
054400
025400
011400
041000
041000
054000
ENDCHAR
STARTCHAR colon
ENCODING 58
SWIDTH 245 0
DWIDTH 4 0
BBX 3 11 1 -1
BITMAP
10
44
44
50
00
00
00
54
44
54
10
ENDCHAR
STARTCHAR semicolon
ENCODING 59
SWIDTH 270 0
DWIDTH 5 0
BBX 4 13 0 -3
BITMAP
04
12
11
15
00
00
00
04
12
51
45
44
10
ENDCHAR
STARTCHAR less
ENCODING 60
SWIDTH 445 0
DWIDTH 8 0
BBX 8 10 0 1
BITMAP
0068
0241
1445
4050
5140
5980
5054
0501
0145
0014
ENDCHAR
STARTCHAR equal
ENCODING 61
SWIDTH 484 0
DWIDTH 9 0
BBX 8 9 0 2
BITMAP
1440
5596
4041
2556
0000
2595
4041
5041
1555
ENDCHAR
STARTCHAR greater
ENCODING 62
SWIDTH 445 0
DWIDTH 8 0
BBX 8 10 0 1
BITMAP
2900
4180
5114
0501
0181
0265
1505
4050
5140
1400
ENDCHAR
STARTCHAR question
ENCODING 63
SWIDTH 455 0
DWIDTH 8 0
BBX 8 14 0 -1
BITMAP
1400
4190
4055
5541
0196
0409
1810
1140
1040
0500
1500
1100
1500
0400
ENDCHAR
STARTCHAR at
ENCODING 64
SWIDTH 812 0
DWIDTH 15 0
BBX 14 14 0 -1
BITMAP
05659600
20104940
16555440
11555540
25511940
11595510
11444650
11544510
16855A10
11410560
12555550
55540000
19410000
00540000
ENDCHAR
STARTCHAR A
ENCODING 65
SWIDTH 507 0
DWIDTH 9 0
BBX 10 13 0 0
BITMAP
054000
042000
041400
044400
154400
109500
109100
216680
256010
411050
425980
410440
550940
ENDCHAR
STARTCHAR B
ENCODING 66
SWIDTH 533 0
DWIDTH 10 0
BBX 10 15 0 -1
BITMAP
010000
155000
201900
291150
115410
651580
119080
111500
115540
659040
12A490
251250
601500
615000
050000
ENDCHAR
STARTCHAR C
ENCODING 67
SWIDTH 515 0
DWIDTH 9 0
BBX 10 14 0 -1
BITMAP
055000
101580
101040
159580
254000
104000
110000
210000
550000
515540
426050
551040
255540
040000
ENDCHAR
STARTCHAR D
ENCODING 68
SWIDTH 520 0
DWIDTH 9 0
BBX 10 14 0 -1
BITMAP
194000
245000
281400
120900
659140
111010
110850
111550
65A040
124600
110800
412000
568000
010000
ENDCHAR
STARTCHAR E
ENCODING 69
SWIDTH 490 0
DWIDTH 9 0
BBX 9 13 0 0
BITMAP
155500
116440
111040
115540
650000
115400
110400
115400
655400
125100
111540
411040
565600
ENDCHAR
STARTCHAR F
ENCODING 70
SWIDTH 475 0
DWIDTH 9 0
BBX 9 13 0 0
BITMAP
155500
116440
111040
115540
650000
115400
110400
115400
655400
110000
110000
410000
560000
ENDCHAR
STARTCHAR G
ENCODING 71
SWIDTH 557 0
DWIDTH 10 0
BBX 10 14 0 -1
BITMAP
055000
101580
101040
159580
254000
104140
110410
210410
550410
515910
426410
551410
255950
040000
ENDCHAR
STARTCHAR H
ENCODING 72
SWIDTH 611 0
DWIDTH 11 0
BBX 11 13 0 0
BITMAP
150150
110410
110510
110510
650550
110410
110564
115644
658104
114564
125410
410410
550550
ENDCHAR
STARTCHAR I
ENCODING 73
SWIDTH 266 0
DWIDTH 5 0
BBX 4 13 0 0
BITMAP
15
11
11
11
65
11
11
11
65
11
11
41
55
ENDCHAR
STARTCHAR J
ENCODING 74
SWIDTH 484 0
DWIDTH 9 0
BBX 9 14 -1 -1
BITMAP
000540
000440
000440
000440
001940
000440
050440
110440
509940
156440
051440
010540
004980
005000
ENDCHAR
STARTCHAR K
ENCODING 75
SWIDTH 541 0
DWIDTH 10 0
BBX 10 13 0 0
BITMAP
150000
110250
110810
112050
655440
124200
110800
115100
655500
126440
111080
410450
560940
ENDCHAR
STARTCHAR L
ENCODING 76
SWIDTH 467 0
DWIDTH 8 0
BBX 9 13 0 0
BITMAP
150000
110000
110000
110000
650000
110000
110000
110000
650000
124100
119540
414040
565540
ENDCHAR
STARTCHAR M
ENCODING 77
SWIDTH 733 0
DWIDTH 13 0
BBX 13 13 0 0
BITMAP
05405400
04504400
04614500
10510500
25565500
10991600
11482100
11442100
55566540
41215840
41118440
41108440
55154980
ENDCHAR
STARTCHAR N
ENCODING 78
SWIDTH 598 0
DWIDTH 11 0
BBX 10 13 0 0
BITMAP
150150
118110
114110
112110
655650
110910
124510
114110
659650
111150
111090
411460
5606A0
ENDCHAR
STARTCHAR O
ENCODING 79
SWIDTH 612 0
DWIDTH 11 0
BBX 11 14 0 -1
BITMAP
055040
1015A0
101060
159690
254650
104110
110110
210114
560254
511654
426424
551018
2555A0
040000
ENDCHAR
STARTCHAR P
ENCODING 80
SWIDTH 513 0
DWIDTH 9 0
BBX 10 14 0 -1
BITMAP
194000
201800
241150
129010
651980
515080
125140
111400
655000
124000
110000
410000
560000
040000
ENDCHAR
STARTCHAR Q
ENCODING 81
SWIDTH 612 0
DWIDTH 11 0
BBX 11 16 0 -3
BITMAP
055040
1015A0
101060
159690
254650
104110
110110
210114
560254
511654
426424
551018
2559A0
044400
004500
005400
ENDCHAR
STARTCHAR R
ENCODING 82
SWIDTH 532 0
DWIDTH 10 0
BBX 10 14 0 -1
BITMAP
094000
206800
241550
165010
251950
515080
12A540
118500
655100
125540
111440
510410
520550
140100
ENDCHAR
STARTCHAR S
ENCODING 83
SWIDTH 442 0
DWIDTH 8 0
BBX 8 14 0 -1
BITMAP
1155
6841
5155
4240
1040
1540
0810
0514
0154
0145
5682
4115
5554
1000
ENDCHAR
STARTCHAR T
ENCODING 84
SWIDTH 453 0
DWIDTH 8 0
BBX 9 13 0 0
BITMAP
559500
404140
404100
566500
051000
095000
041000
041000
055000
041000
041000
041000
055000
ENDCHAR
STARTCHAR U
ENCODING 85
SWIDTH 583 0
DWIDTH 11 0
BBX 10 14 0 -1
BITMAP
150540
104810
104410
114410
254950
110410
110410
510410
560550
515A50
425060
921060
255690
040000
ENDCHAR
STARTCHAR V
ENCODING 86
SWIDTH 506 0
DWIDTH 9 0
BBX 9 13 0 -1
BITMAP
550940
410440
411440
552440
611140
115100
109100
155500
044500
044400
050400
059400
014000
ENDCHAR
STARTCHAR W
ENCODING 87
SWIDTH 735 0
DWIDTH 13 0
BBX 13 14 0 -1
BITMAP
00000100
55051580
45211440
41205040
55646440
61495140
11845100
10845100
15959500
04454100
05054500
05054400
05944400
01401000
ENDCHAR
STARTCHAR X
ENCODING 88
SWIDTH 483 0
DWIDTH 9 0
BBX 9 12 0 0
BITMAP
551600
811040
118100
119500
0A1400
051400
082400
165400
108100
415140
411040
581500
ENDCHAR
STARTCHAR Y
ENCODING 89
SWIDTH 484 0
DWIDTH 9 0
BBX 10 13 -1 0
BITMAP
000140
250160
410410
104410
056940
051040
011100
008100
005500
010400
010400
051000
015000
ENDCHAR
STARTCHAR Z
ENCODING 90
SWIDTH 458 0
DWIDTH 8 0
BBX 9 13 0 0
BITMAP
155400
105100
104240
159600
018400
011400
041000
081000
114000
518400
429100
854100
295500
ENDCHAR
STARTCHAR bracketleft
ENCODING 91
SWIDTH 420 0
DWIDTH 8 0
BBX 8 15 0 -1
BITMAP
0054
1905
5215
1240
1100
6500
4100
5100
5100
5500
4100
5100
4258
5601
1958
ENDCHAR
STARTCHAR backslash
ENCODING 92
SWIDTH 453 0
DWIDTH 8 0
BBX 8 13 0 0
BITMAP
0400
5500
4100
1140
1180
1450
0410
0520
0144
0104
0041
0041
0054
ENDCHAR
STARTCHAR bracketright
ENCODING 93
SWIDTH 420 0
DWIDTH 8 0
BBX 7 15 0 -1
BITMAP
5400
41A0
5148
0644
0144
0158
0144
0044
0144
0158
0144
0044
5644
4154
55A0
ENDCHAR
STARTCHAR asciicircum
ENCODING 94
SWIDTH 353 0
DWIDTH 6 0
BBX 6 5 0 7
BITMAP
0600
1180
1150
4510
1450
ENDCHAR
STARTCHAR underscore
ENCODING 95
SWIDTH 499 0
DWIDTH 9 0
BBX 7 4 1 -5
BITMAP
5654
4104
4104
5554
ENDCHAR
STARTCHAR grave
ENCODING 96
SWIDTH 183 0
DWIDTH 3 0
BBX 4 5 0 13
BITMAP
14
84
44
15
14
ENDCHAR
STARTCHAR a
ENCODING 97
SWIDTH 507 0
DWIDTH 9 0
BBX 10 13 0 0
BITMAP
054000
042000
041400
044400
154400
109500
109100
216680
256010
411050
425980
410440
550940
ENDCHAR
STARTCHAR b
ENCODING 98
SWIDTH 533 0
DWIDTH 10 0
BBX 10 15 0 -1
BITMAP
010000
155000
201900
291150
115410
651580
119080
111500
115540
659040
12A490
251250
601500
615000
050000
ENDCHAR
STARTCHAR c
ENCODING 99
SWIDTH 515 0
DWIDTH 9 0
BBX 10 14 0 -1
BITMAP
055000
101580
101040
159580
254000
104000
110000
210000
550000
515540
426050
551040
255540
040000
ENDCHAR
STARTCHAR d
ENCODING 100
SWIDTH 520 0
DWIDTH 9 0
BBX 10 14 0 -1
BITMAP
194000
245000
281400
120900
659140
111010
110850
111550
65A040
124600
110800
412000
568000
010000
ENDCHAR
STARTCHAR e
ENCODING 101
SWIDTH 490 0
DWIDTH 9 0
BBX 9 13 0 0
BITMAP
155500
116440
111040
115540
650000
115400
110400
115400
655400
125100
111540
411040
565600
ENDCHAR
STARTCHAR f
ENCODING 102
SWIDTH 475 0
DWIDTH 9 0
BBX 9 13 0 0
BITMAP
155500
116440
111040
115540
650000
115400
110400
115400
655400
110000
110000
410000
560000
ENDCHAR
STARTCHAR g
ENCODING 103
SWIDTH 557 0
DWIDTH 10 0
BBX 10 14 0 -1
BITMAP
055000
101580
101040
159580
254000
104140
110410
210410
550410
515910
426410
551410
255950
040000
ENDCHAR
STARTCHAR h
ENCODING 104
SWIDTH 611 0
DWIDTH 11 0
BBX 11 13 0 0
BITMAP
150150
110410
110510
110510
650550
110410
110564
115644
658104
114564
125410
410410
550550
ENDCHAR
STARTCHAR i
ENCODING 105
SWIDTH 266 0
DWIDTH 5 0
BBX 4 13 0 0
BITMAP
15
11
11
11
65
11
11
11
65
11
11
41
55
ENDCHAR
STARTCHAR j
ENCODING 106
SWIDTH 482 0
DWIDTH 9 0
BBX 9 14 -1 -1
BITMAP
000540
000440
000440
000440
001940
000440
050440
110440
509940
156440
051440
010540
004980
005000
ENDCHAR
STARTCHAR k
ENCODING 107
SWIDTH 541 0
DWIDTH 10 0
BBX 10 13 0 0
BITMAP
150000
110250
110810
112050
655440
124200
110800
115100
655500
126440
111080
410450
560940
ENDCHAR
STARTCHAR l
ENCODING 108
SWIDTH 467 0
DWIDTH 8 0
BBX 9 13 0 0
BITMAP
150000
110000
110000
110000
650000
110000
110000
110000
650000
124100
119540
414040
565540
ENDCHAR
STARTCHAR m
ENCODING 109
SWIDTH 733 0
DWIDTH 13 0
BBX 13 13 0 0
BITMAP
05405400
04504400
04614500
10510500
25565500
10991600
11482100
11442100
55566540
41215840
41118440
41108440
55154980
ENDCHAR
STARTCHAR n
ENCODING 110
SWIDTH 598 0
DWIDTH 11 0
BBX 10 13 0 0
BITMAP
150150
118110
114110
112110
655650
110910
124510
114110
659650
111150
111090
411460
5606A0
ENDCHAR
STARTCHAR o
ENCODING 111
SWIDTH 612 0
DWIDTH 11 0
BBX 11 14 0 -1
BITMAP
055040
1015A0
101060
159690
254650
104110
110110
210114
560254
511654
426424
551018
2555A0
040000
ENDCHAR
STARTCHAR p
ENCODING 112
SWIDTH 513 0
DWIDTH 9 0
BBX 10 14 0 -1
BITMAP
194000
201800
241150
129010
651980
515080
125140
111400
655000
124000
110000
410000
560000
040000
ENDCHAR
STARTCHAR q
ENCODING 113
SWIDTH 612 0
DWIDTH 11 0
BBX 11 16 0 -3
BITMAP
055040
1015A0
101060
159690
254650
104110
110110
210114
560254
511654
426424
551018
2559A0
044400
004500
005400
ENDCHAR
STARTCHAR r
ENCODING 114
SWIDTH 532 0
DWIDTH 10 0
BBX 10 14 0 -1
BITMAP
094000
206800
241550
165010
251950
515080
12A540
118500
655100
125540
111440
510410
520550
140100
ENDCHAR
STARTCHAR s
ENCODING 115
SWIDTH 442 0
DWIDTH 8 0
BBX 8 14 0 -1
BITMAP
1155
6841
5155
4240
1040
1540
0810
0514
0154
0145
5682
4115
5554
1000
ENDCHAR
STARTCHAR t
ENCODING 116
SWIDTH 453 0
DWIDTH 8 0
BBX 9 13 0 0
BITMAP
559500
404140
404100
566500
051000
095000
041000
041000
055000
041000
041000
041000
055000
ENDCHAR
STARTCHAR u
ENCODING 117
SWIDTH 583 0
DWIDTH 11 0
BBX 10 14 0 -1
BITMAP
150540
104810
104410
114410
254950
110410
110410
510410
560550
515A50
425060
921060
255690
040000
ENDCHAR
STARTCHAR v
ENCODING 118
SWIDTH 506 0
DWIDTH 9 0
BBX 9 13 0 -1
BITMAP
550940
410440
411440
552440
611140
115100
109100
155500
044500
044400
050400
059400
014000
ENDCHAR
STARTCHAR w
ENCODING 119
SWIDTH 735 0
DWIDTH 13 0
BBX 13 14 0 -1
BITMAP
00000100
55051580
45211440
41205040
55646440
61495140
11845100
10845100
15959500
04454100
05054500
05054400
05944400
01401000
ENDCHAR
STARTCHAR x
ENCODING 120
SWIDTH 483 0
DWIDTH 9 0
BBX 9 12 0 0
BITMAP
551600
811040
118100
119500
0A1400
051400
082400
165400
108100
415140
411040
581500
ENDCHAR
STARTCHAR y
ENCODING 121
SWIDTH 484 0
DWIDTH 9 0
BBX 10 13 -1 0
BITMAP
000140
250160
410410
104410
056940
051040
011100
008100
005500
010400
010400
051000
015000
ENDCHAR
STARTCHAR z
ENCODING 122
SWIDTH 458 0
DWIDTH 8 0
BBX 9 13 0 0
BITMAP
155400
105100
104240
159600
018400
011400
041000
081000
114000
518400
429100
854100
295500
ENDCHAR
STARTCHAR braceleft
ENCODING 123
SWIDTH 473 0
DWIDTH 9 0
BBX 9 15 0 -1
BITMAP
001500
099140
044100
042400
065000
011400
955400
402400
555400
011000
055000
041000
145500
144140
069600
ENDCHAR
STARTCHAR bar
ENCODING 124
SWIDTH 263 0
DWIDTH 5 0
BBX 4 15 0 -1
BITMAP
15
11
11
11
15
55
11
11
11
65
11
11
51
41
25
ENDCHAR
STARTCHAR braceright
ENCODING 125
SWIDTH 473 0
DWIDTH 9 0
BBX 9 15 0 -1
BITMAP
540000
425400
510400
051000
046000
041000
165540
090040
055540
041000
056000
010400
560800
414800
559000
ENDCHAR
STARTCHAR asciitilde
ENCODING 126
SWIDTH 456 0
DWIDTH 8 0
BBX 8 5 0 4
BITMAP
0A55
1191
5514
4524
1050
ENDCHAR
STARTCHAR nonbreakingspace
ENCODING 160
SWIDTH 200 0
DWIDTH 4 0
BBX 1 1 0 0
BITMAP
00
ENDCHAR
STARTCHAR exclamdown
ENCODING 161
SWIDTH 259 0
DWIDTH 5 0
BBX 4 14 0 -1
BITMAP
04
11
11
15
15
11
11
11
56
11
11
51
56
04
ENDCHAR
STARTCHAR cent
ENCODING 162
SWIDTH 480 0
DWIDTH 9 0
BBX 8 17 0 -3
BITMAP
0150
0110
0115
0291
2411
6015
5640
5500
4100
4200
4264
6516
1641
0165
0110
0220
0040
ENDCHAR
STARTCHAR sterling
ENCODING 163
SWIDTH 594 0
DWIDTH 11 0
BBX 11 13 0 0
BITMAP
004000
015500
060040
025040
052540
195500
441100
451100
196500
042550
041954
041414
056550
ENDCHAR
STARTCHAR currency
ENCODING 164
SWIDTH 640 0
DWIDTH 12 0
BBX 11 11 0 1
BITMAP
141054
415944
515144
1950A0
142554
108208
155914
160864
414544
516148
140410
ENDCHAR
STARTCHAR yen
ENCODING 165
SWIDTH 575 0
DWIDTH 10 0
BBX 10 12 0 0
BITMAP
290550
410420
504450
156440
091140
065140
156580
101040
165940
011400
041000
015000
ENDCHAR
STARTCHAR brokenbar
ENCODING 166
SWIDTH 258 0
DWIDTH 5 0
BBX 4 16 0 -2
BITMAP
16
11
11
65
11
51
52
04
15
52
11
65
51
11
41
15
ENDCHAR
STARTCHAR section
ENCODING 167
SWIDTH 474 0
DWIDTH 9 0
BBX 8 14 0 -1
BITMAP
1555
5441
5455
51A0
511A
1552
1151
5284
6559
1501
1596
4045
5555
1000
ENDCHAR
STARTCHAR dieresis
ENCODING 168
SWIDTH 351 0
DWIDTH 6 0
BBX 7 4 0 13
BITMAP
1040
8954
4510
5450
ENDCHAR
STARTCHAR copyright
ENCODING 169
SWIDTH 719 0
DWIDTH 13 0
BBX 13 13 0 0
BITMAP
15659500
20105540
29555540
15150500
65805540
55A95100
14541500
55551540
55545540
54155100
45556500
55410240
29555500
ENDCHAR
STARTCHAR ordfeminine
ENCODING 170
SWIDTH 455 0
DWIDTH 8 0
BBX 9 13 0 0
BITMAP
055000
065400
050400
114400
244800
159500
558100
501100
555140
541500
155400
100400
155400
ENDCHAR
STARTCHAR guillemotleft
ENCODING 171
SWIDTH 689 0
DWIDTH 12 0
BBX 12 9 0 2
BITMAP
004004
015015
141141
405405
520460
554554
141141
052051
014014
ENDCHAR
STARTCHAR logicalnot
ENCODING 172
SWIDTH 591 0
DWIDTH 11 0
BBX 10 8 0 0
BITMAP
155140
412590
401110
655510
000110
000110
000220
000040
ENDCHAR
STARTCHAR uni00AD
ENCODING 173
SWIDTH 465 0
DWIDTH 8 0
BBX 8 4 0 4
BITMAP
1595
4041
4041
1555
ENDCHAR
STARTCHAR registered
ENCODING 174
SWIDTH 719 0
DWIDTH 13 0
BBX 13 13 0 0
BITMAP
15659500
20105540
29555540
15000500
65655540
55555100
14551500
55441540
55441540
54541100
45556500
55410240
29555500
ENDCHAR
STARTCHAR macron
ENCODING 175
SWIDTH 263 0
DWIDTH 5 0
BBX 5 3 0 13
BITMAP
5540
4040
5500
ENDCHAR
STARTCHAR degree
ENCODING 176
SWIDTH 333 0
DWIDTH 6 0
BBX 6 5 0 7
BITMAP
1640
1140
4A10
5550
5540
ENDCHAR
STARTCHAR plusminus
ENCODING 177
SWIDTH 464 0
DWIDTH 8 0
BBX 8 12 0 -2
BITMAP
0150
0510
1665
4041
4041
2665
0510
0150
1140
5596
4041
5555
ENDCHAR
STARTCHAR twosuperior
ENCODING 178
SWIDTH 324 0
DWIDTH 6 0
BBX 6 8 0 5
BITMAP
1440
4040
5580
0440
1100
4150
6410
1540
ENDCHAR
STARTCHAR threesuperior
ENCODING 179
SWIDTH 332 0
DWIDTH 6 0
BBX 6 8 0 5
BITMAP
1400
4050
5550
1510
1510
1510
4190
1500
ENDCHAR
STARTCHAR acute
ENCODING 180
SWIDTH 202 0
DWIDTH 4 0
BBX 4 5 0 13
BITMAP
04
11
55
94
50
ENDCHAR
STARTCHAR mu
ENCODING 181
SWIDTH 582 0
DWIDTH 10 0
BBX 10 16 0 -3
BITMAP
040140
254850
104450
114450
110950
254810
110410
110410
110950
110550
25A450
111060
125AA0
510040
520000
040000
ENDCHAR
STARTCHAR paragraph
ENCODING 182
SWIDTH 556 0
DWIDTH 10 0
BBX 10 14 0 -1
BITMAP
001600
064190
554640
405840
564940
505440
145440
010440
005940
001440
000440
000440
001440
000100
ENDCHAR
STARTCHAR periodcentered
ENCODING 183
SWIDTH 215 0
DWIDTH 4 0
BBX 4 3 0 5
BITMAP
55
45
54
ENDCHAR
STARTCHAR cedilla
ENCODING 184
SWIDTH 237 0
DWIDTH 4 0
BBX 5 6 0 -4
BITMAP
0500
0500
0500
5540
4600
5400
ENDCHAR
STARTCHAR onesuperior
ENCODING 185
SWIDTH 286 0
DWIDTH 5 0
BBX 5 8 0 5
BITMAP
0500
1440
4140
4840
1440
0440
0440
0500
ENDCHAR
STARTCHAR ordmasculine
ENCODING 186
SWIDTH 476 0
DWIDTH 9 0
BBX 9 13 0 0
BITMAP
154500
559500
405600
666140
411100
411100
42A600
544100
555500
144000
155800
100400
155800
ENDCHAR
STARTCHAR guillemotright
ENCODING 187
SWIDTH 689 0
DWIDTH 12 0
BBX 12 9 0 2
BITMAP
040040
150550
414414
141141
052052
146156
505505
510510
140140
ENDCHAR
STARTCHAR onequarter
ENCODING 188
SWIDTH 790 0
DWIDTH 14 0
BBX 14 13 0 0
BITMAP
01000000
04454000
51444000
48444000
14484000
04504000
04510540
01510490
00251110
00114650
00445450
00441550
00140150
ENDCHAR
STARTCHAR onehalf
ENCODING 189
SWIDTH 771 0
DWIDTH 14 0
BBX 14 13 0 0
BITMAP
01000000
04454000
51444000
48444000
14484000
04504000
04515540
01514040
00255580
00110440
00441100
00444550
00142950
ENDCHAR
STARTCHAR threequarters
ENCODING 190
SWIDTH 817 0
DWIDTH 15 0
BBX 15 13 0 0
BITMAP
14400000
40515000
55511000
15111000
15154000
15144000
41944140
15044460
00155444
00111254
00112420
00111554
00150054
ENDCHAR
STARTCHAR questiondown
ENCODING 191
SWIDTH 455 0
DWIDTH 8 0
BBX 8 13 0 0
BITMAP
0054
0044
0094
0010
0054
0044
0154
1414
6450
4550
4115
1601
0155
ENDCHAR
STARTCHAR Agrave
ENCODING 192
SWIDTH 507 0
DWIDTH 9 0
BBX 10 18 0 0
BITMAP
014000
044000
054000
011000
004000
054000
042000
041400
044400
154400
109500
109100
216680
256010
411050
425980
410440
550940
ENDCHAR
STARTCHAR Aacute
ENCODING 193
SWIDTH 507 0
DWIDTH 9 0
BBX 10 18 0 0
BITMAP
000400
001100
001500
008400
001000
054000
042000
041400
044400
154400
109500
109100
216680
256010
411050
425980
410440
550940
ENDCHAR
STARTCHAR Acircumflex
ENCODING 194
SWIDTH 507 0
DWIDTH 9 0
BBX 10 18 0 0
BITMAP
016000
012400
048400
051100
051400
054000
042000
041400
044400
154400
109500
109100
216680
256010
411050
425980
410440
550940
ENDCHAR
STARTCHAR Atilde
ENCODING 195
SWIDTH 507 0
DWIDTH 9 0
BBX 10 17 0 0
BITMAP
058540
045540
115500
114800
095400
042000
041400
044400
154400
109500
109100
216680
256010
411050
425980
410440
550940
ENDCHAR
STARTCHAR Adieresis
ENCODING 196
SWIDTH 507 0
DWIDTH 9 0
BBX 10 17 0 0
BITMAP
010400
156600
045100
051400
054000
042000
041400
044400
154400
109500
109100
216680
256010
411050
425980
410440
550940
ENDCHAR
STARTCHAR Aring
ENCODING 197
SWIDTH 507 0
DWIDTH 9 0
BBX 10 18 0 0
BITMAP
015400
015400
045500
0A6500
055800
069400
042000
041400
044400
154400
109500
109100
216680
256010
411050
425980
410440
550940
ENDCHAR
STARTCHAR AE
ENCODING 198
SWIDTH 797 0
DWIDTH 14 0
BBX 16 13 -1 0
BITMAP
00005554
00160945
00104505
00510954
00935400
01060950
02050410
05260910
05525840
14510944
10960558
51010504
15015954
ENDCHAR
STARTCHAR Ccedilla
ENCODING 199
SWIDTH 515 0
DWIDTH 9 0
BBX 10 17 0 -4
BITMAP
055000
101580
101040
159580
254000
104000
110000
210000
550000
515540
426050
551040
255940
044400
018400
042400
024000
ENDCHAR
STARTCHAR Egrave
ENCODING 200
SWIDTH 490 0
DWIDTH 9 0
BBX 9 18 0 0
BITMAP
014000
054000
015000
011000
004000
155500
116440
111040
115540
650000
115400
110400
115400
655400
125100
111540
411040
565600
ENDCHAR
STARTCHAR Eacute
ENCODING 201
SWIDTH 490 0
DWIDTH 9 0
BBX 9 18 0 0
BITMAP
001000
001400
004400
015000
005000
155500
116440
111040
115540
650000
115400
110400
115400
655400
125100
111540
411040
565600
ENDCHAR
STARTCHAR Ecircumflex
ENCODING 202
SWIDTH 490 0
DWIDTH 9 0
BBX 9 18 0 0
BITMAP
016000
012400
048400
051500
051400
155500
116440
111040
115540
650000
115400
110400
115400
655400
125100
111540
411040
565600
ENDCHAR
STARTCHAR Edieresis
ENCODING 203
SWIDTH 490 0
DWIDTH 9 0
BBX 9 17 0 0
BITMAP
010400
156500
055100
051400
155500
116440
111040
115540
650000
115400
110400
115400
655400
125100
111540
411040
565600
ENDCHAR
STARTCHAR Igrave
ENCODING 204
SWIDTH 266 0
DWIDTH 5 0
BBX 4 18 0 0
BITMAP
10
84
44
14
14
15
11
11
11
65
11
11
11
65
11
11
41
55
ENDCHAR
STARTCHAR Iacute
ENCODING 205
SWIDTH 266 0
DWIDTH 5 0
BBX 6 18 0 0
BITMAP
0140
0150
0440
0500
0500
1500
1100
1100
1100
6500
1100
1100
1100
6500
1100
1100
4100
5500
ENDCHAR
STARTCHAR Icircumflex
ENCODING 206
SWIDTH 266 0
DWIDTH 5 0
BBX 6 18 0 0
BITMAP
1600
1240
4840
5110
5140
1500
1100
1100
1100
6500
1100
1100
1100
6500
1100
1100
4100
5500
ENDCHAR
STARTCHAR Idieresis
ENCODING 207
SWIDTH 266 0
DWIDTH 5 0
BBX 7 17 -1 0
BITMAP
1410
5554
4444
1450
0540
0440
0440
0440
1940
0440
0440
0440
1940
0440
0440
1040
1540
ENDCHAR
STARTCHAR Eth
ENCODING 208
SWIDTH 669 0
DWIDTH 12 0
BBX 14 14 -1 -1
BITMAP
00194000
00505000
00641400
00520900
00965140
25915040
50050880
15551550
00659140
00421500
00411400
00415000
00564000
00010000
ENDCHAR
STARTCHAR Ntilde
ENCODING 209
SWIDTH 598 0
DWIDTH 11 0
BBX 10 18 0 0
BITMAP
00A550
011510
055540
045240
010500
150150
118110
114110
112110
655650
110910
124510
114110
659650
111150
111090
411460
5606A0
ENDCHAR
STARTCHAR Ograve
ENCODING 210
SWIDTH 612 0
DWIDTH 11 0
BBX 11 19 0 -1
BITMAP
005000
015000
004400
005400
001000
055040
1015A0
101060
159690
254650
104110
110110
210114
560254
511654
426424
551018
2555A0
040000
ENDCHAR
STARTCHAR Oacute
ENCODING 211
SWIDTH 612 0
DWIDTH 11 0
BBX 11 19 0 -1
BITMAP
000100
000440
001540
002500
001400
055040
1015A0
101060
159690
254650
104110
110110
210114
560254
511654
426424
551018
2555A0
040000
ENDCHAR
STARTCHAR Ocircumflex
ENCODING 212
SWIDTH 612 0
DWIDTH 11 0
BBX 11 19 0 -1
BITMAP
005800
004900
012500
015440
004500
055040
1015A0
101060
159690
254650
104110
110110
210114
560254
511654
426424
551018
2555A0
040000
ENDCHAR
STARTCHAR Otilde
ENCODING 213
SWIDTH 612 0
DWIDTH 11 0
BBX 11 19 0 -1
BITMAP
00A550
011910
056140
045140
010500
055040
1015A0
101060
159690
254650
104110
110110
210114
560254
511654
426424
551018
2555A0
040000
ENDCHAR
STARTCHAR Odieresis
ENCODING 214
SWIDTH 612 0
DWIDTH 11 0
BBX 11 18 0 -1
BITMAP
014100
055540
044540
014500
055040
1015A0
101060
159690
254650
104110
110110
210114
560254
511654
426424
551018
2555A0
040000
ENDCHAR
STARTCHAR multiply
ENCODING 215
SWIDTH 421 0
DWIDTH 8 0
BBX 7 7 0 2
BITMAP
2554
4144
5094
1554
4208
5554
1410
ENDCHAR
STARTCHAR Oslash
ENCODING 216
SWIDTH 612 0
DWIDTH 11 0
BBX 11 14 0 -1
BITMAP
055040
101660
101510
159860
256490
105150
118210
214514
568654
542654
446424
605018
2195A0
090000
ENDCHAR
STARTCHAR Ugrave
ENCODING 217
SWIDTH 583 0
DWIDTH 11 0
BBX 10 19 0 -1
BITMAP
005000
021000
011000
005400
005000
150540
104810
104410
114410
254950
110410
110410
510410
560550
515A50
425060
921060
255690
040000
ENDCHAR
STARTCHAR Uacute
ENCODING 218
SWIDTH 583 0
DWIDTH 11 0
BBX 10 19 0 -1
BITMAP
000400
001100
001500
004400
001000
150540
104810
104410
114410
254950
110410
110410
510410
560550
515A50
425060
921060
255690
040000
ENDCHAR
STARTCHAR Ucircumflex
ENCODING 219
SWIDTH 583 0
DWIDTH 11 0
BBX 10 19 0 -1
BITMAP
00A400
011800
055100
045100
010400
150540
104810
104410
114410
254950
110410
110410
510410
560550
515A50
425060
921060
255690
040000
ENDCHAR
STARTCHAR Udieresis
ENCODING 220
SWIDTH 583 0
DWIDTH 11 0
BBX 10 18 0 -1
BITMAP
010400
089540
045100
054500
150540
104810
104410
114410
254950
110410
110410
510410
560550
515A50
425060
921060
255690
040000
ENDCHAR
STARTCHAR Yacute
ENCODING 221
SWIDTH 484 0
DWIDTH 9 0
BBX 10 17 -1 0
BITMAP
000400
001500
001100
004400
001140
250160
410410
104410
056940
051040
011100
008100
005500
010400
010400
051000
015000
ENDCHAR
STARTCHAR Thorn
ENCODING 222
SWIDTH 520 0
DWIDTH 9 0
BBX 10 14 0 -1
BITMAP
150000
120000
294000
201800
651150
525010
111980
115080
655140
111400
115000
514000
560000
040000
ENDCHAR
STARTCHAR germandbls
ENCODING 223
SWIDTH 884 0
DWIDTH 16 0
BBX 16 14 0 -1
BITMAP
11551555
68416841
51558155
42404240
10401040
15401540
08100410
05140514
01540254
01450145
56825682
41154155
55545554
10001000
ENDCHAR
STARTCHAR agrave
ENCODING 224
SWIDTH 507 0
DWIDTH 9 0
BBX 10 18 0 0
BITMAP
014000
044000
054000
011000
004000
054000
042000
041400
044400
154400
109500
109100
216680
256010
411050
425980
410440
550940
ENDCHAR
STARTCHAR aacute
ENCODING 225
SWIDTH 507 0
DWIDTH 9 0
BBX 10 18 0 0
BITMAP
000400
001100
001500
008400
001000
054000
042000
041400
044400
154400
109500
109100
216680
256010
411050
425980
410440
550940
ENDCHAR
STARTCHAR acircumflex
ENCODING 226
SWIDTH 507 0
DWIDTH 9 0
BBX 10 18 0 0
BITMAP
016000
012400
048400
051100
051400
054000
042000
041400
044400
154400
109500
109100
216680
256010
411050
425980
410440
550940
ENDCHAR
STARTCHAR atilde
ENCODING 227
SWIDTH 507 0
DWIDTH 9 0
BBX 10 17 0 0
BITMAP
058540
045540
115500
114800
095400
042000
041400
044400
154400
109500
109100
216680
256010
411050
425980
410440
550940
ENDCHAR
STARTCHAR adieresis
ENCODING 228
SWIDTH 507 0
DWIDTH 9 0
BBX 10 17 0 0
BITMAP
010400
156600
045100
051400
054000
042000
041400
044400
154400
109500
109100
216680
256010
411050
425980
410440
550940
ENDCHAR
STARTCHAR aring
ENCODING 229
SWIDTH 507 0
DWIDTH 9 0
BBX 10 18 0 0
BITMAP
015400
015400
045500
0A6500
055800
069400
042000
041400
044400
154400
109500
109100
216680
256010
411050
425980
410440
550940
ENDCHAR
STARTCHAR ae
ENCODING 230
SWIDTH 797 0
DWIDTH 14 0
BBX 16 13 -1 0
BITMAP
00005554
00160945
00104505
00510954
00935400
01060950
02050410
05260910
05525840
14510944
10960558
51010504
15015954
ENDCHAR
STARTCHAR ccedilla
ENCODING 231
SWIDTH 515 0
DWIDTH 9 0
BBX 10 17 0 -4
BITMAP
055000
101580
101040
159580
254000
104000
110000
210000
550000
515540
426050
551040
255940
044400
018400
042400
024000
ENDCHAR
STARTCHAR egrave
ENCODING 232
SWIDTH 490 0
DWIDTH 9 0
BBX 9 18 0 0
BITMAP
014000
054000
015000
011000
004000
155500
116440
111040
115540
650000
115400
110400
115400
655400
125100
111540
411040
565600
ENDCHAR
STARTCHAR eacute
ENCODING 233
SWIDTH 490 0
DWIDTH 9 0
BBX 9 18 0 0
BITMAP
001000
001400
004400
015000
005000
155500
116440
111040
115540
650000
115400
110400
115400
655400
125100
111540
411040
565600
ENDCHAR
STARTCHAR ecircumflex
ENCODING 234
SWIDTH 490 0
DWIDTH 9 0
BBX 9 18 0 0
BITMAP
016000
012400
048400
051500
051400
155500
116440
111040
115540
650000
115400
110400
115400
655400
125100
111540
411040
565600
ENDCHAR
STARTCHAR edieresis
ENCODING 235
SWIDTH 490 0
DWIDTH 9 0
BBX 9 17 0 0
BITMAP
010400
156500
055100
051400
155500
116440
111040
115540
650000
115400
110400
115400
655400
125100
111540
411040
565600
ENDCHAR
STARTCHAR igrave
ENCODING 236
SWIDTH 266 0
DWIDTH 5 0
BBX 4 18 0 0
BITMAP
10
84
44
14
14
15
11
11
11
65
11
11
11
65
11
11
41
55
ENDCHAR
STARTCHAR iacute
ENCODING 237
SWIDTH 266 0
DWIDTH 5 0
BBX 6 18 0 0
BITMAP
0140
0150
0440
0500
0500
1500
1100
1100
1100
6500
1100
1100
1100
6500
1100
1100
4100
5500
ENDCHAR
STARTCHAR icircumflex
ENCODING 238
SWIDTH 266 0
DWIDTH 5 0
BBX 6 18 0 0
BITMAP
1600
1240
4840
5110
5140
1500
1100
1100
1100
6500
1100
1100
1100
6500
1100
1100
4100
5500
ENDCHAR
STARTCHAR idieresis
ENCODING 239
SWIDTH 266 0
DWIDTH 5 0
BBX 7 17 -1 0
BITMAP
1410
5554
4444
1450
0540
0440
0440
0440
1940
0440
0440
0440
1940
0440
0440
1040
1540
ENDCHAR
STARTCHAR eth
ENCODING 240
SWIDTH 669 0
DWIDTH 12 0
BBX 14 14 -1 -1
BITMAP
00194000
00505000
00641400
00520900
00965140
25915040
50050880
15551550
00659140
00421500
00411400
00415000
00564000
00010000
ENDCHAR
STARTCHAR ntilde
ENCODING 241
SWIDTH 598 0
DWIDTH 11 0
BBX 10 18 0 0
BITMAP
00A550
011510
055540
045240
010500
150150
118110
114110
112110
655650
110910
124510
114110
659650
111150
111090
411460
5606A0
ENDCHAR
STARTCHAR ograve
ENCODING 242
SWIDTH 612 0
DWIDTH 11 0
BBX 11 19 0 -1
BITMAP
005000
015000
004400
005400
001000
055040
1015A0
101060
159690
254650
104110
110110
210114
560254
511654
426424
551018
2555A0
040000
ENDCHAR
STARTCHAR oacute
ENCODING 243
SWIDTH 612 0
DWIDTH 11 0
BBX 11 19 0 -1
BITMAP
000100
000440
001540
002500
001400
055040
1015A0
101060
159690
254650
104110
110110
210114
560254
511654
426424
551018
2555A0
040000
ENDCHAR
STARTCHAR ocircumflex
ENCODING 244
SWIDTH 612 0
DWIDTH 11 0
BBX 11 19 0 -1
BITMAP
005800
004900
012500
015440
004500
055040
1015A0
101060
159690
254650
104110
110110
210114
560254
511654
426424
551018
2555A0
040000
ENDCHAR
STARTCHAR otilde
ENCODING 245
SWIDTH 612 0
DWIDTH 11 0
BBX 11 19 0 -1
BITMAP
00A550
011910
056140
045140
010500
055040
1015A0
101060
159690
254650
104110
110110
210114
560254
511654
426424
551018
2555A0
040000
ENDCHAR
STARTCHAR odieresis
ENCODING 246
SWIDTH 612 0
DWIDTH 11 0
BBX 11 18 0 -1
BITMAP
014100
055540
044540
014500
055040
1015A0
101060
159690
254650
104110
110110
210114
560254
511654
426424
551018
2555A0
040000
ENDCHAR
STARTCHAR divide
ENCODING 247
SWIDTH 457 0
DWIDTH 8 0
BBX 8 10 0 1
BITMAP
0150
0110
0150
1595
4041
4041
1555
0150
0110
0250
ENDCHAR
STARTCHAR oslash
ENCODING 248
SWIDTH 612 0
DWIDTH 11 0
BBX 11 14 0 -1
BITMAP
055040
101660
101510
159860
256490
105150
118210
214514
568654
542654
446424
605018
2195A0
090000
ENDCHAR
STARTCHAR ugrave
ENCODING 249
SWIDTH 583 0
DWIDTH 11 0
BBX 10 19 0 -1
BITMAP
005000
021000
011000
005400
005000
150540
104810
104410
114410
254950
110410
110410
510410
560550
515A50
425060
921060
255690
040000
ENDCHAR
STARTCHAR uacute
ENCODING 250
SWIDTH 583 0
DWIDTH 11 0
BBX 10 19 0 -1
BITMAP
000400
001100
001500
004400
001000
150540
104810
104410
114410
254950
110410
110410
510410
560550
515A50
425060
921060
255690
040000
ENDCHAR
STARTCHAR ucircumflex
ENCODING 251
SWIDTH 583 0
DWIDTH 11 0
BBX 10 19 0 -1
BITMAP
00A400
011800
055100
045100
010400
150540
104810
104410
114410
254950
110410
110410
510410
560550
515A50
425060
921060
255690
040000
ENDCHAR
STARTCHAR udieresis
ENCODING 252
SWIDTH 583 0
DWIDTH 11 0
BBX 10 18 0 -1
BITMAP
010400
089540
045100
054500
150540
104810
104410
114410
254950
110410
110410
510410
560550
515A50
425060
921060
255690
040000
ENDCHAR
STARTCHAR yacute
ENCODING 253
SWIDTH 484 0
DWIDTH 9 0
BBX 10 17 -1 0
BITMAP
000400
001500
001100
004400
001140
250160
410410
104410
056940
051040
011100
008100
005500
010400
010400
051000
015000
ENDCHAR
STARTCHAR thorn
ENCODING 254
SWIDTH 520 0
DWIDTH 9 0
BBX 10 14 0 -1
BITMAP
150000
120000
294000
201800
651150
525010
111980
115080
655140
111400
115000
514000
560000
040000
ENDCHAR
STARTCHAR ydieresis
ENCODING 255
SWIDTH 484 0
DWIDTH 9 0
BBX 10 16 -1 0
BITMAP
014100
055540
045500
054640
250160
410410
104410
056940
051040
011100
008100
005500
010400
010400
051000
015000
ENDCHAR
STARTCHAR Amacron
ENCODING 256
SWIDTH 507 0
DWIDTH 9 0
BBX 10 15 0 0
BITMAP
055400
040400
069400
042000
041400
044400
154400
109500
109100
216680
256010
411050
425980
410440
550940
ENDCHAR
STARTCHAR amacron
ENCODING 257
SWIDTH 507 0
DWIDTH 9 0
BBX 10 15 0 0
BITMAP
055400
040400
069400
042000
041400
044400
154400
109500
109100
216680
256010
411050
425980
410440
550940
ENDCHAR
STARTCHAR Abreve
ENCODING 258
SWIDTH 507 0
DWIDTH 9 0
BBX 10 17 0 0
BITMAP
051400
151100
056800
0A0800
069000
042000
041400
044400
154400
109500
109100
216680
256010
411050
425980
410440
550940
ENDCHAR
STARTCHAR abreve
ENCODING 259
SWIDTH 507 0
DWIDTH 9 0
BBX 10 17 0 0
BITMAP
051400
151100
056800
0A0800
069000
042000
041400
044400
154400
109500
109100
216680
256010
411050
425980
410440
550940
ENDCHAR
STARTCHAR Aogonek
ENCODING 260
SWIDTH 507 0
DWIDTH 9 0
BBX 10 17 0 -4
BITMAP
054000
042000
041400
044400
154400
109500
109100
216680
256010
411050
425980
410440
550980
000500
000A40
000510
000140
ENDCHAR
STARTCHAR aogonek
ENCODING 261
SWIDTH 507 0
DWIDTH 9 0
BBX 10 17 0 -4
BITMAP
054000
042000
041400
044400
154400
109500
109100
216680
256010
411050
425980
410440
550980
000500
000A40
000510
000140
ENDCHAR
STARTCHAR Cacute
ENCODING 262
SWIDTH 515 0
DWIDTH 9 0
BBX 10 19 0 -1
BITMAP
000400
001500
001100
004400
001000
055000
101580
101040
159580
254000
104000
110000
210000
550000
515540
426050
551040
255540
040000
ENDCHAR
STARTCHAR cacute
ENCODING 263
SWIDTH 515 0
DWIDTH 9 0
BBX 10 19 0 -1
BITMAP
000400
001500
001100
004400
001000
055000
101580
101040
159580
254000
104000
110000
210000
550000
515540
426050
551040
255540
040000
ENDCHAR
STARTCHAR Ccircumflex
ENCODING 264
SWIDTH 515 0
DWIDTH 9 0
BBX 10 19 0 -1
BITMAP
005800
004900
012100
014440
014500
055000
101580
101040
159580
254000
104000
110000
210000
550000
515540
426050
551040
255540
040000
ENDCHAR
STARTCHAR ccircumflex
ENCODING 265
SWIDTH 515 0
DWIDTH 9 0
BBX 10 19 0 -1
BITMAP
005800
004900
012100
014440
014500
055000
101580
101040
159580
254000
104000
110000
210000
550000
515540
426050
551040
255540
040000
ENDCHAR
STARTCHAR Cdotaccent
ENCODING 266
SWIDTH 515 0
DWIDTH 9 0
BBX 10 18 0 -1
BITMAP
001000
008800
004400
005400
055000
101580
101040
159580
254000
104000
110000
210000
550000
515540
426050
551040
255540
040000
ENDCHAR
STARTCHAR cdotaccent
ENCODING 267
SWIDTH 515 0
DWIDTH 9 0
BBX 10 18 0 -1
BITMAP
001000
008800
004400
005400
055000
101580
101040
159580
254000
104000
110000
210000
550000
515540
426050
551040
255540
040000
ENDCHAR
STARTCHAR Ccaron
ENCODING 268
SWIDTH 515 0
DWIDTH 9 0
BBX 10 18 0 -1
BITMAP
014500
012140
011500
005800
05A400
101580
101040
159580
254000
104000
110000
210000
550000
515540
426050
551040
255540
040000
ENDCHAR
STARTCHAR ccaron
ENCODING 269
SWIDTH 515 0
DWIDTH 9 0
BBX 10 18 0 -1
BITMAP
014500
012140
011500
005800
05A400
101580
101040
159580
254000
104000
110000
210000
550000
515540
426050
551040
255540
040000
ENDCHAR
STARTCHAR Dcaron
ENCODING 270
SWIDTH 520 0
DWIDTH 9 0
BBX 10 19 0 -1
BITMAP
091500
049500
055400
016000
004000
194000
245000
281400
120900
659140
111010
110850
111550
65A040
124600
110800
412000
568000
010000
ENDCHAR
STARTCHAR dcaron
ENCODING 271
SWIDTH 520 0
DWIDTH 9 0
BBX 10 19 0 -1
BITMAP
091500
049500
055400
016000
004000
194000
245000
281400
120900
659140
111010
110850
111550
65A040
124600
110800
412000
568000
010000
ENDCHAR
STARTCHAR Dcroat
ENCODING 272
SWIDTH 669 0
DWIDTH 12 0
BBX 14 14 -1 -1
BITMAP
00194000
00505000
00641400
00520900
00965140
25915040
50050880
15551550
00659140
00421500
00411400
00415000
00564000
00010000
ENDCHAR
STARTCHAR dcroat
ENCODING 273
SWIDTH 669 0
DWIDTH 12 0
BBX 14 14 -1 -1
BITMAP
00194000
00505000
00641400
00520900
00965140
25915040
50050880
15551550
00659140
00421500
00411400
00415000
00564000
00010000
ENDCHAR
STARTCHAR Emacron
ENCODING 274
SWIDTH 490 0
DWIDTH 9 0
BBX 9 16 0 0
BITMAP
055400
040400
055400
155500
116440
111040
115540
650000
115400
110400
115400
655400
125100
111540
411040
565600
ENDCHAR
STARTCHAR emacron
ENCODING 275
SWIDTH 490 0
DWIDTH 9 0
BBX 9 16 0 0
BITMAP
055400
040400
055400
155500
116440
111040
115540
650000
115400
110400
115400
655400
125100
111540
411040
565600
ENDCHAR
STARTCHAR Ebreve
ENCODING 276
SWIDTH 490 0
DWIDTH 9 0
BBX 9 18 0 0
BITMAP
051500
051100
04A500
054800
015400
155500
116440
111040
115540
650000
115400
110400
115400
655400
125100
111540
411040
565600
ENDCHAR
STARTCHAR ebreve
ENCODING 277
SWIDTH 490 0
DWIDTH 9 0
BBX 9 18 0 0
BITMAP
051500
051100
04A500
054800
015400
155500
116440
111040
115540
650000
115400
110400
115400
655400
125100
111540
411040
565600
ENDCHAR
STARTCHAR Edotaccent
ENCODING 278
SWIDTH 490 0
DWIDTH 9 0
BBX 9 17 0 0
BITMAP
004000
021000
011000
015000
155500
116440
111040
115540
650000
115400
110400
115400
655400
125100
111540
411040
565600
ENDCHAR
STARTCHAR edotaccent
ENCODING 279
SWIDTH 490 0
DWIDTH 9 0
BBX 9 17 0 0
BITMAP
004000
021000
011000
015000
155500
116440
111040
115540
650000
115400
110400
115400
655400
125100
111540
411040
565600
ENDCHAR
STARTCHAR Eogonek
ENCODING 280
SWIDTH 490 0
DWIDTH 9 0
BBX 9 17 0 -4
BITMAP
155500
116440
111040
115540
650000
115400
110400
115400
655400
125100
111540
411040
566600
005400
006500
001440
000500
ENDCHAR
STARTCHAR eogonek
ENCODING 281
SWIDTH 490 0
DWIDTH 9 0
BBX 9 17 0 -4
BITMAP
155500
116440
111040
115540
650000
115400
110400
115400
655400
125100
111540
411040
566600
005400
006500
001440
000500
ENDCHAR
STARTCHAR Ecaron
ENCODING 282
SWIDTH 490 0
DWIDTH 9 0
BBX 9 17 0 0
BITMAP
055500
045100
011400
012000
15A500
116440
111040
115540
650000
115400
110400
115400
655400
125100
111540
411040
565600
ENDCHAR
STARTCHAR ecaron
ENCODING 283
SWIDTH 490 0
DWIDTH 9 0
BBX 9 17 0 0
BITMAP
055500
045100
011400
012000
15A500
116440
111040
115540
650000
115400
110400
115400
655400
125100
111540
411040
565600
ENDCHAR
STARTCHAR Gcircumflex
ENCODING 284
SWIDTH 557 0
DWIDTH 10 0
BBX 10 18 0 -1
BITMAP
006800
015800
012100
054500
069500
101580
101040
159580
254000
104140
110410
210410
550410
515910
426410
551410
255950
040000
ENDCHAR
STARTCHAR gcircumflex
ENCODING 285
SWIDTH 557 0
DWIDTH 10 0
BBX 10 18 0 -1
BITMAP
006800
015800
012100
054500
069500
101580
101040
159580
254000
104140
110410
210410
550410
515910
426410
551410
255950
040000
ENDCHAR
STARTCHAR Gbreve
ENCODING 286
SWIDTH 557 0
DWIDTH 10 0
BBX 10 19 0 -1
BITMAP
054500
044540
055900
028600
005400
055000
101580
101040
159580
254000
104140
110410
210410
550410
515910
426410
551410
255950
040000
ENDCHAR
STARTCHAR gbreve
ENCODING 287
SWIDTH 557 0
DWIDTH 10 0
BBX 10 19 0 -1
BITMAP
054500
044540
055900
028600
005400
055000
101580
101040
159580
254000
104140
110410
210410
550410
515910
426410
551410
255950
040000
ENDCHAR
STARTCHAR Gdotaccent
ENCODING 288
SWIDTH 557 0
DWIDTH 10 0
BBX 10 18 0 -1
BITMAP
001000
008800
004400
005400
055000
101580
101040
159580
254000
104140
110410
210410
550410
515910
426410
551410
255950
040000
ENDCHAR
STARTCHAR gdotaccent
ENCODING 289
SWIDTH 557 0
DWIDTH 10 0
BBX 10 18 0 -1
BITMAP
001000
008800
004400
005400
055000
101580
101040
159580
254000
104140
110410
210410
550410
515910
426410
551410
255950
040000
ENDCHAR
STARTCHAR Gcommaaccent
ENCODING 290
SWIDTH 557 0
DWIDTH 10 0
BBX 10 18 0 -5
BITMAP
055000
101580
101040
159580
254000
104140
110410
210410
550410
515910
426410
551410
255950
045000
005000
011000
014000
014000
ENDCHAR
STARTCHAR gcommaaccent
ENCODING 291
SWIDTH 557 0
DWIDTH 10 0
BBX 10 18 0 -5
BITMAP
055000
101580
101040
159580
254000
104140
110410
210410
550410
515910
426410
551410
255950
045000
005000
011000
014000
014000
ENDCHAR
STARTCHAR Hcircumflex
ENCODING 292
SWIDTH 611 0
DWIDTH 11 0
BBX 11 18 0 0
BITMAP
005800
015800
012100
014500
014500
150150
110410
110510
110510
650550
110410
110564
115644
658104
114564
125410
410410
550550
ENDCHAR
STARTCHAR hcircumflex
ENCODING 293
SWIDTH 611 0
DWIDTH 11 0
BBX 11 18 0 0
BITMAP
005800
015800
012100
014500
014500
150150
110410
110510
110510
650550
110410
110564
115644
658104
114564
125410
410410
550550
ENDCHAR
STARTCHAR Hbar
ENCODING 294
SWIDTH 706 0
DWIDTH 13 0
BBX 13 13 0 0
BITMAP
05405400
04510400
14559500
44545540
59504040
14559940
04405900
04559100
09604200
04515900
04950400
14410400
05415400
ENDCHAR
STARTCHAR hbar
ENCODING 295
SWIDTH 706 0
DWIDTH 13 0
BBX 13 13 0 0
BITMAP
05405400
04510400
14559500
44545540
59504040
14559940
04405900
04559100
09604200
04515900
04950400
14410400
05415400
ENDCHAR
STARTCHAR Itilde
ENCODING 296
SWIDTH 266 0
DWIDTH 5 0
BBX 8 18 -1 0
BITMAP
1615
1295
4544
5520
1150
0540
0440
0440
0440
1940
0440
0440
0440
1940
0440
0440
1040
1540
ENDCHAR
STARTCHAR itilde
ENCODING 297
SWIDTH 266 0
DWIDTH 5 0
BBX 8 18 -1 0
BITMAP
1615
1295
4544
5520
1150
0540
0440
0440
0440
1940
0440
0440
0440
1940
0440
0440
1040
1540
ENDCHAR
STARTCHAR Imacron
ENCODING 298
SWIDTH 266 0
DWIDTH 5 0
BBX 5 16 0 0
BITMAP
5540
4040
5540
1500
1100
1100
1100
6500
1100
1100
1100
6500
1100
1100
4100
5500
ENDCHAR
STARTCHAR imacron
ENCODING 299
SWIDTH 266 0
DWIDTH 5 0
BBX 5 16 0 0
BITMAP
5540
4040
5540
1500
1100
1100
1100
6500
1100
1100
1100
6500
1100
1100
4100
5500
ENDCHAR
STARTCHAR Ibreve
ENCODING 300
SWIDTH 266 0
DWIDTH 5 0
BBX 7 18 -1 0
BITMAP
1450
5444
15A0
2920
0540
0540
0440
0440
0440
1940
0440
0440
0440
1940
0440
0440
1040
1540
ENDCHAR
STARTCHAR ibreve
ENCODING 301
SWIDTH 266 0
DWIDTH 5 0
BBX 7 18 -1 0
BITMAP
1450
5444
15A0
2920
0540
0540
0440
0440
0440
1940
0440
0440
0440
1940
0440
0440
1040
1540
ENDCHAR
STARTCHAR Iogonek
ENCODING 302
SWIDTH 266 0
DWIDTH 5 0
BBX 4 17 0 -4
BITMAP
15
11
11
11
65
11
11
11
65
11
11
41
66
54
48
61
05
ENDCHAR
STARTCHAR iogonek
ENCODING 303
SWIDTH 266 0
DWIDTH 5 0
BBX 4 17 0 -4
BITMAP
15
11
11
11
65
11
11
11
65
11
11
41
66
54
48
61
05
ENDCHAR
STARTCHAR Idotaccent
ENCODING 304
SWIDTH 266 0
DWIDTH 5 0
BBX 4 17 0 0
BITMAP
04
21
11
14
15
11
11
11
65
11
11
11
65
11
11
41
55
ENDCHAR
STARTCHAR dotlessi
ENCODING 305
SWIDTH 266 0
DWIDTH 5 0
BBX 4 13 0 0
BITMAP
15
11
11
11
65
11
11
11
65
11
11
41
55
ENDCHAR
STARTCHAR IJ
ENCODING 306
SWIDTH 750 0
DWIDTH 14 0
BBX 13 14 0 -1
BITMAP
15000540
11001440
11001440
11001440
65001540
11001040
11141440
11511040
65515540
11156040
11091440
41010440
55004940
00005000
ENDCHAR
STARTCHAR ij
ENCODING 307
SWIDTH 749 0
DWIDTH 13 0
BBX 13 14 0 -1
BITMAP
15000540
11001440
11001440
11001440
65001540
11001040
11141440
11511040
65515540
11156040
11091440
41010440
55004940
00005000
ENDCHAR
STARTCHAR Jcircumflex
ENCODING 308
SWIDTH 484 0
DWIDTH 9 0
BBX 10 18 -1 -1
BITMAP
000640
001580
001210
005550
001990
000440
000440
000440
001940
000440
050440
110440
509940
156440
051440
010540
004980
005000
ENDCHAR
STARTCHAR jcircumflex
ENCODING 309
SWIDTH 482 0
DWIDTH 9 0
BBX 10 18 -1 -1
BITMAP
000640
001580
001210
005550
001990
000440
000440
000440
001940
000440
050440
110440
509940
156440
051440
010540
004980
005000
ENDCHAR
STARTCHAR Kcommaaccent
ENCODING 310
SWIDTH 541 0
DWIDTH 10 0
BBX 10 18 0 -5
BITMAP
150000
110250
110810
112050
655440
124200
110800
115100
655500
126440
111080
410450
560940
004000
015000
011000
044000
010000
ENDCHAR
STARTCHAR kcommaaccent
ENCODING 311
SWIDTH 541 0
DWIDTH 10 0
BBX 10 18 0 -5
BITMAP
150000
110250
110810
112050
655440
124200
110800
115100
655500
126440
111080
410450
560940
004000
015000
011000
044000
010000
ENDCHAR
STARTCHAR kgreenlandic
ENCODING 312
SWIDTH 541 0
DWIDTH 10 0
BBX 10 13 0 0
BITMAP
150000
110250
110810
112050
655440
124200
110800
115100
655500
126440
111080
410450
560940
ENDCHAR
STARTCHAR Lacute
ENCODING 313
SWIDTH 467 0
DWIDTH 8 0
BBX 9 18 0 0
BITMAP
004000
015000
015000
044000
010000
150000
110000
110000
110000
650000
110000
110000
110000
650000
124100
119540
414040
565540
ENDCHAR
STARTCHAR lacute
ENCODING 314
SWIDTH 467 0
DWIDTH 8 0
BBX 9 18 0 0
BITMAP
004000
015000
015000
044000
010000
150000
110000
110000
110000
650000
110000
110000
110000
650000
124100
119540
414040
565540
ENDCHAR
STARTCHAR Lcommaaccent
ENCODING 315
SWIDTH 467 0
DWIDTH 8 0
BBX 9 18 0 -5
BITMAP
150000
110000
110000
110000
650000
110000
110000
110000
650000
124100
119540
414040
565540
014000
015000
044000
050000
050000
ENDCHAR
STARTCHAR lcommaaccent
ENCODING 316
SWIDTH 467 0
DWIDTH 8 0
BBX 9 18 0 -5
BITMAP
150000
110000
110000
110000
650000
110000
110000
110000
650000
124100
119540
414040
565540
014000
015000
044000
050000
050000
ENDCHAR
STARTCHAR Lcaron
ENCODING 317
SWIDTH 467 0
DWIDTH 8 0
BBX 9 14 0 0
BITMAP
000500
151500
115100
115400
111000
650000
110000
110000
110000
650000
124100
119540
414040
565540
ENDCHAR
STARTCHAR lcaron
ENCODING 318
SWIDTH 467 0
DWIDTH 8 0
BBX 9 14 0 0
BITMAP
000500
151500
115100
115400
111000
650000
110000
110000
110000
650000
124100
119540
414040
565540
ENDCHAR
STARTCHAR Ldot
ENCODING 319
SWIDTH 611 0
DWIDTH 11 0
BBX 11 13 0 0
BITMAP
150000
110000
110000
110000
650000
110154
110144
110054
650000
124100
119540
414040
565540
ENDCHAR
STARTCHAR ldotaccent
ENCODING 320
SWIDTH 611 0
DWIDTH 11 0
BBX 11 13 0 0
BITMAP
150000
110000
110000
110000
650000
110154
110144
110054
650000
124100
119540
414040
565540
ENDCHAR
STARTCHAR Lslash
ENCODING 321
SWIDTH 505 0
DWIDTH 9 0
BBX 10 13 -1 0
BITMAP
015000
041000
051000
041000
095400
182500
541100
542500
195000
042550
042510
041410
056550
ENDCHAR
STARTCHAR lslash
ENCODING 322
SWIDTH 505 0
DWIDTH 9 0
BBX 10 13 -1 0
BITMAP
015000
041000
051000
041000
095400
182500
541100
542500
195000
042550
042510
041410
056550
ENDCHAR
STARTCHAR Nacute
ENCODING 323
SWIDTH 598 0
DWIDTH 11 0
BBX 10 17 0 0
BITMAP
000500
000500
001100
005400
151550
118110
114110
112110
655650
110910
124510
114110
659650
111150
111090
411460
5606A0
ENDCHAR
STARTCHAR nacute
ENCODING 324
SWIDTH 598 0
DWIDTH 11 0
BBX 10 17 0 0
BITMAP
000500
000500
001100
005400
151550
118110
114110
112110
655650
110910
124510
114110
659650
111150
111090
411460
5606A0
ENDCHAR
STARTCHAR Ncommaaccent
ENCODING 325
SWIDTH 598 0
DWIDTH 11 0
BBX 10 18 0 -5
BITMAP
150150
118110
114110
112110
655650
110910
124510
114110
659650
111150
111090
411460
5606A0
001000
005400
015400
015000
014000
ENDCHAR
STARTCHAR ncommaaccent
ENCODING 326
SWIDTH 598 0
DWIDTH 11 0
BBX 10 18 0 -5
BITMAP
150150
118110
114110
112110
655650
110910
124510
114110
659650
111150
111090
411460
5606A0
001000
005400
015400
015000
014000
ENDCHAR
STARTCHAR Ncaron
ENCODING 327
SWIDTH 598 0
DWIDTH 11 0
BBX 10 17 0 0
BITMAP
014540
012540
015500
005800
155150
118110
114110
112110
655650
110910
124510
114110
659650
111150
111090
411460
5606A0
ENDCHAR
STARTCHAR ncaron
ENCODING 328
SWIDTH 598 0
DWIDTH 11 0
BBX 10 17 0 0
BITMAP
014540
012540
015500
005800
155150
118110
114110
112110
655650
110910
124510
114110
659650
111150
111090
411460
5606A0
ENDCHAR
STARTCHAR napostrophe
ENCODING 329
SWIDTH 807 0
DWIDTH 15 0
BBX 14 13 0 0
BITMAP
14150150
11524520
44114510
94511510
10555550
00411810
00520910
00424510
00559250
00415110
00411090
00411090
00550690
ENDCHAR
STARTCHAR Eng
ENCODING 330
SWIDTH 595 0
DWIDTH 11 0
BBX 10 18 0 -5
BITMAP
150040
118260
114110
112110
655510
110A50
124910
114110
659510
111150
1110A0
411460
560A50
001A50
056060
141040
045540
050000
ENDCHAR
STARTCHAR eng
ENCODING 331
SWIDTH 595 0
DWIDTH 11 0
BBX 10 18 0 -5
BITMAP
150040
118260
114110
112110
655510
110A50
124910
114110
659510
111150
1110A0
411460
560A50
001A50
056060
141040
045540
050000
ENDCHAR
STARTCHAR Omacron
ENCODING 332
SWIDTH 612 0
DWIDTH 11 0
BBX 11 17 0 -1
BITMAP
015500
010100
005500
055040
1015A0
101060
159690
254650
104110
110110
210114
560254
511654
426424
551018
2555A0
040000
ENDCHAR
STARTCHAR omacron
ENCODING 333
SWIDTH 612 0
DWIDTH 11 0
BBX 11 17 0 -1
BITMAP
015500
010100
005500
055040
1015A0
101060
159690
254650
104110
110110
210114
560254
511654
426424
551018
2555A0
040000
ENDCHAR
STARTCHAR Obreve
ENCODING 334
SWIDTH 612 0
DWIDTH 11 0
BBX 11 19 0 -1
BITMAP
014540
014440
015A00
015200
005400
055040
1015A0
101060
159690
254650
104110
110110
210114
560254
511654
426424
551018
2555A0
040000
ENDCHAR
STARTCHAR obreve
ENCODING 335
SWIDTH 612 0
DWIDTH 11 0
BBX 11 19 0 -1
BITMAP
014540
014440
015A00
015200
005400
055040
1015A0
101060
159690
254650
104110
110110
210114
560254
511654
426424
551018
2555A0
040000
ENDCHAR
STARTCHAR Ohungarumlaut
ENCODING 336
SWIDTH 612 0
DWIDTH 11 0
BBX 11 19 0 -1
BITMAP
001040
001550
004910
015440
005100
055040
1015A0
101060
159690
254650
104110
110110
210114
560254
511654
426424
551018
2555A0
040000
ENDCHAR
STARTCHAR ohungarumlaut
ENCODING 337
SWIDTH 612 0
DWIDTH 11 0
BBX 11 19 0 -1
BITMAP
001040
001550
004910
015440
005100
055040
1015A0
101060
159690
254650
104110
110110
210114
560254
511654
426424
551018
2555A0
040000
ENDCHAR
STARTCHAR OE
ENCODING 338
SWIDTH 831 0
DWIDTH 15 0
BBX 15 14 0 -1
BITMAP
05519554
10159544
10106104
15969554
25425000
10411580
11011050
21011540
56025540
51165510
42645154
55105104
2556A554
04000000
ENDCHAR
STARTCHAR oe
ENCODING 339
SWIDTH 831 0
DWIDTH 15 0
BBX 15 14 0 -1
BITMAP
05519554
10159544
10106104
15969554
25425000
10411580
11011050
21011540
56025540
51165510
42645154
55105104
2556A554
04000000
ENDCHAR
STARTCHAR Racute
ENCODING 340
SWIDTH 532 0
DWIDTH 10 0
BBX 10 18 0 -1
BITMAP
000400
001500
001100
004400
095000
206800
241550
165010
251950
515080
12A540
118500
655100
125540
111440
510410
520550
140100
ENDCHAR
STARTCHAR racute
ENCODING 341
SWIDTH 532 0
DWIDTH 10 0
BBX 10 18 0 -1
BITMAP
000400
001500
001100
004400
095000
206800
241550
165010
251950
515080
12A540
118500
655100
125540
111440
510410
520550
140100
ENDCHAR
STARTCHAR Rcommaaccent
ENCODING 342
SWIDTH 532 0
DWIDTH 10 0
BBX 10 18 0 -5
BITMAP
094000
206800
241550
165010
251950
515080
12A540
118500
655100
125540
111440
510410
520550
144100
015000
011000
044000
010000
ENDCHAR
STARTCHAR rcommaaccent
ENCODING 343
SWIDTH 532 0
DWIDTH 10 0
BBX 10 18 0 -5
BITMAP
094000
206800
241550
165010
251950
515080
12A540
118500
655100
125540
111440
510410
520550
144100
015000
011000
044000
010000
ENDCHAR
STARTCHAR Rcaron
ENCODING 344
SWIDTH 532 0
DWIDTH 10 0
BBX 10 19 0 -1
BITMAP
055500
045100
011400
012400
005000
094000
206800
241550
165010
251950
515080
12A540
118500
655100
125540
111440
510410
520550
140100
ENDCHAR
STARTCHAR rcaron
ENCODING 345
SWIDTH 532 0
DWIDTH 10 0
BBX 10 19 0 -1
BITMAP
055500
045100
011400
012400
005000
094000
206800
241550
165010
251950
515080
12A540
118500
655100
125540
111440
510410
520550
140100
ENDCHAR
STARTCHAR Sacute
ENCODING 346
SWIDTH 442 0
DWIDTH 8 0
BBX 8 19 0 -1
BITMAP
0050
0054
0110
0150
0140
1155
6841
5155
4240
1040
1540
0810
0514
0154
0145
5682
4115
5554
1000
ENDCHAR
STARTCHAR sacute
ENCODING 347
SWIDTH 442 0
DWIDTH 8 0
BBX 8 19 0 -1
BITMAP
0050
0054
0110
0150
0140
1155
6841
5155
4240
1040
1540
0810
0514
0154
0145
5682
4115
5554
1000
ENDCHAR
STARTCHAR Scircumflex
ENCODING 348
SWIDTH 442 0
DWIDTH 8 0
BBX 8 19 0 -1
BITMAP
0280
0450
1154
1144
0410
1155
6841
5155
4240
1040
1540
0810
0514
0154
0145
5682
4115
5554
1000
ENDCHAR
STARTCHAR scircumflex
ENCODING 349
SWIDTH 442 0
DWIDTH 8 0
BBX 8 19 0 -1
BITMAP
0280
0450
1154
1144
0410
1155
6841
5155
4240
1040
1540
0810
0514
0154
0145
5682
4115
5554
1000
ENDCHAR
STARTCHAR Scedilla
ENCODING 350
SWIDTH 442 0
DWIDTH 8 0
BBX 8 17 0 -4
BITMAP
1155
6841
5155
4240
1040
1540
0810
0514
0154
0145
5682
4115
5564
1110
0660
1090
0500
ENDCHAR
STARTCHAR scedilla
ENCODING 351
SWIDTH 442 0
DWIDTH 8 0
BBX 8 17 0 -4
BITMAP
1155
6841
5155
4240
1040
1540
0810
0514
0154
0145
5682
4115
5564
1110
0660
1090
0500
ENDCHAR
STARTCHAR Scaron
ENCODING 352
SWIDTH 442 0
DWIDTH 8 0
BBX 8 19 0 -1
BITMAP
1554
1144
0450
0490
0140
1155
6841
5155
4240
1040
1540
0810
0514
0154
0145
5682
4115
5554
1000
ENDCHAR
STARTCHAR scaron
ENCODING 353
SWIDTH 442 0
DWIDTH 8 0
BBX 8 19 0 -1
BITMAP
1554
1144
0450
0490
0140
1155
6841
5155
4240
1040
1540
0810
0514
0154
0145
5682
4115
5554
1000
ENDCHAR
STARTCHAR Tcommaaccent
ENCODING 354
SWIDTH 453 0
DWIDTH 8 0
BBX 9 18 0 -5
BITMAP
559500
404140
404100
566500
051000
095000
041000
041000
055000
041000
041000
041000
055000
010000
054000
054000
110000
040000
ENDCHAR
STARTCHAR tcommaaccent
ENCODING 355
SWIDTH 453 0
DWIDTH 8 0
BBX 9 18 0 -5
BITMAP
559500
404140
404100
566500
051000
095000
041000
041000
055000
041000
041000
041000
055000
010000
054000
054000
110000
040000
ENDCHAR
STARTCHAR Tcaron
ENCODING 356
SWIDTH 453 0
DWIDTH 8 0
BBX 9 18 0 0
BITMAP
151400
158400
045000
019000
014000
559500
404140
404100
566500
051000
095000
041000
041000
055000
041000
041000
041000
055000
ENDCHAR
STARTCHAR tcaron
ENCODING 357
SWIDTH 453 0
DWIDTH 8 0
BBX 9 18 0 0
BITMAP
151400
158400
045000
019000
014000
559500
404140
404100
566500
051000
095000
041000
041000
055000
041000
041000
041000
055000
ENDCHAR
STARTCHAR Tbar
ENCODING 358
SWIDTH 455 0
DWIDTH 8 0
BBX 9 14 0 -1
BITMAP
555500
405540
404140
5A6500
041000
095000
256400
100400
269800
041000
041000
041000
055000
004000
ENDCHAR
STARTCHAR tbar
ENCODING 359
SWIDTH 455 0
DWIDTH 8 0
BBX 9 14 0 -1
BITMAP
555500
405540
404140
5A6500
041000
095000
256400
100400
269800
041000
041000
041000
055000
004000
ENDCHAR
STARTCHAR Utilde
ENCODING 360
SWIDTH 583 0
DWIDTH 11 0
BBX 10 19 0 -1
BITMAP
00A550
011510
055140
045240
010500
150540
104810
104410
114410
254950
110410
110410
510410
560550
515A50
425060
921060
255690
040000
ENDCHAR
STARTCHAR utilde
ENCODING 361
SWIDTH 583 0
DWIDTH 11 0
BBX 10 19 0 -1
BITMAP
00A550
011510
055140
045240
010500
150540
104810
104410
114410
254950
110410
110410
510410
560550
515A50
425060
921060
255690
040000
ENDCHAR
STARTCHAR Umacron
ENCODING 362
SWIDTH 583 0
DWIDTH 11 0
BBX 10 17 0 -1
BITMAP
015500
010100
015500
150540
104810
104410
114410
254950
110410
110410
510410
560550
515A50
425060
921060
255690
040000
ENDCHAR
STARTCHAR umacron
ENCODING 363
SWIDTH 583 0
DWIDTH 11 0
BBX 10 17 0 -1
BITMAP
015500
010100
015500
150540
104810
104410
114410
254950
110410
110410
510410
560550
515A50
425060
921060
255690
040000
ENDCHAR
STARTCHAR Ubreve
ENCODING 364
SWIDTH 583 0
DWIDTH 11 0
BBX 10 19 0 -1
BITMAP
054500
044500
045900
018500
005400
150540
104810
104410
114410
254950
110410
110410
510410
560550
515A50
425060
921060
255690
040000
ENDCHAR
STARTCHAR ubreve
ENCODING 365
SWIDTH 583 0
DWIDTH 11 0
BBX 10 19 0 -1
BITMAP
054500
044500
045900
018500
005400
150540
104810
104410
114410
254950
110410
110410
510410
560550
515A50
425060
921060
255690
040000
ENDCHAR
STARTCHAR Uring
ENCODING 366
SWIDTH 583 0
DWIDTH 11 0
BBX 10 20 0 -1
BITMAP
005400
012500
056100
069600
015500
014400
150540
104810
104410
114410
254950
110410
110410
510410
560550
515A50
425060
921060
255690
040000
ENDCHAR
STARTCHAR uring
ENCODING 367
SWIDTH 583 0
DWIDTH 11 0
BBX 10 20 0 -1
BITMAP
005400
012500
056100
069600
015500
014400
150540
104810
104410
114410
254950
110410
110410
510410
560550
515A50
425060
921060
255690
040000
ENDCHAR
STARTCHAR Uhungarumlaut
ENCODING 368
SWIDTH 583 0
DWIDTH 11 0
BBX 10 19 0 -1
BITMAP
001140
005550
015840
015500
014500
150540
104810
104410
114410
254950
110410
110410
510410
560550
515A50
425060
921060
255690
040000
ENDCHAR
STARTCHAR uhungarumlaut
ENCODING 369
SWIDTH 583 0
DWIDTH 11 0
BBX 10 19 0 -1
BITMAP
001140
005550
015840
015500
014500
150540
104810
104410
114410
254950
110410
110410
510410
560550
515A50
425060
921060
255690
040000
ENDCHAR
STARTCHAR Uogonek
ENCODING 370
SWIDTH 583 0
DWIDTH 11 0
BBX 10 17 0 -4
BITMAP
150540
104810
104410
114410
254950
110410
110410
510410
560550
515A50
425060
921060
2556A0
040440
000480
000610
000050
ENDCHAR
STARTCHAR uogonek
ENCODING 371
SWIDTH 583 0
DWIDTH 11 0
BBX 10 17 0 -4
BITMAP
150540
104810
104410
114410
254950
110410
110410
510410
560550
515A50
425060
921060
2556A0
040440
000480
000610
000050
ENDCHAR
STARTCHAR Wcircumflex
ENCODING 372
SWIDTH 735 0
DWIDTH 13 0
BBX 13 18 0 -1
BITMAP
00160000
00124000
00484000
00515000
00514100
55051580
45211440
41205040
55646440
61495140
11845100
10845100
15959500
04454100
05054500
05054400
05944400
01401000
ENDCHAR
STARTCHAR wcircumflex
ENCODING 373
SWIDTH 735 0
DWIDTH 13 0
BBX 13 18 0 -1
BITMAP
00160000
00124000
00484000
00515000
00514100
55051580
45211440
41205040
55646440
61495140
11845100
10845100
15959500
04454100
05054500
05054400
05944400
01401000
ENDCHAR
STARTCHAR Ycircumflex
ENCODING 374
SWIDTH 484 0
DWIDTH 9 0
BBX 10 17 -1 0
BITMAP
00A400
011800
012100
045500
014540
250160
410410
104410
056940
051040
011100
008100
005500
010400
010400
051000
015000
ENDCHAR
STARTCHAR ycircumflex
ENCODING 375
SWIDTH 484 0
DWIDTH 9 0
BBX 10 17 -1 0
BITMAP
00A400
011800
012100
045500
014540
250160
410410
104410
056940
051040
011100
008100
005500
010400
010400
051000
015000
ENDCHAR
STARTCHAR Ydieresis
ENCODING 376
SWIDTH 484 0
DWIDTH 9 0
BBX 10 16 -1 0
BITMAP
014100
055540
045500
054640
250160
410410
104410
056940
051040
011100
008100
005500
010400
010400
051000
015000
ENDCHAR
STARTCHAR Zacute
ENCODING 377
SWIDTH 458 0
DWIDTH 8 0
BBX 9 18 0 0
BITMAP
001000
005400
004400
011000
004000
155400
105100
104240
159600
018400
011400
041000
081000
114000
518400
429100
854100
295500
ENDCHAR
STARTCHAR zacute
ENCODING 378
SWIDTH 458 0
DWIDTH 8 0
BBX 9 18 0 0
BITMAP
001000
005400
004400
011000
004000
155400
105100
104240
159600
018400
011400
041000
081000
114000
518400
429100
854100
295500
ENDCHAR
STARTCHAR Zdotaccent
ENCODING 379
SWIDTH 458 0
DWIDTH 8 0
BBX 9 17 0 0
BITMAP
004000
011000
011000
014000
155400
105100
104240
159600
018400
011400
041000
081000
114000
518400
429100
854100
295500
ENDCHAR
STARTCHAR zdotaccent
ENCODING 380
SWIDTH 458 0
DWIDTH 8 0
BBX 9 17 0 0
BITMAP
004000
011000
011000
014000
155400
105100
104240
159600
018400
011400
041000
081000
114000
518400
429100
854100
295500
ENDCHAR
STARTCHAR Zcaron
ENCODING 381
SWIDTH 458 0
DWIDTH 8 0
BBX 9 17 0 0
BITMAP
151400
158400
045000
059000
169400
105100
104240
159600
018400
011400
041000
081000
114000
518400
429100
854100
295500
ENDCHAR
STARTCHAR zcaron
ENCODING 382
SWIDTH 458 0
DWIDTH 8 0
BBX 9 17 0 0
BITMAP
151400
158400
045000
059000
169400
105100
104240
159600
018400
011400
041000
081000
114000
518400
429100
854100
295500
ENDCHAR
STARTCHAR AEacute
ENCODING 508
SWIDTH 797 0
DWIDTH 14 0
BBX 16 18 -1 0
BITMAP
00001000
00001400
00004400
00015000
00005000
00005554
00160945
00104505
00510954
00935400
01060950
02050410
05260910
05525840
14510944
10960558
51010504
15015954
ENDCHAR
STARTCHAR aeacute
ENCODING 509
SWIDTH 797 0
DWIDTH 14 0
BBX 16 18 -1 0
BITMAP
00001000
00001400
00004400
00015000
00005000
00005554
00160945
00104505
00510954
00935400
01060950
02050410
05260910
05525840
14510944
10960558
51010504
15015954
ENDCHAR
STARTCHAR Oslashacute
ENCODING 510
SWIDTH 612 0
DWIDTH 11 0
BBX 11 19 0 -1
BITMAP
000500
000540
001100
001400
001400
055040
101660
101510
159860
256490
105150
118210
214514
568654
542654
446424
605018
2195A0
090000
ENDCHAR
STARTCHAR oslashacute
ENCODING 511
SWIDTH 612 0
DWIDTH 11 0
BBX 11 19 0 -1
BITMAP
000500
000540
001100
001400
001400
055040
101660
101510
159860
256490
105150
118210
214514
568654
542654
446424
605018
2195A0
090000
ENDCHAR
STARTCHAR dotlessj
ENCODING 567
SWIDTH 482 0
DWIDTH 9 0
BBX 9 14 -1 -1
BITMAP
000540
000440
000440
000440
001940
000440
050440
110440
509940
156440
051440
010540
004980
005000
ENDCHAR
STARTCHAR circumflex
ENCODING 710
SWIDTH 308 0
DWIDTH 6 0
BBX 6 5 0 13
BITMAP
1600
1240
4840
5510
1140
ENDCHAR
STARTCHAR caron
ENCODING 711
SWIDTH 310 0
DWIDTH 6 0
BBX 6 5 0 13
BITMAP
9550
4550
1540
1200
0500
ENDCHAR
STARTCHAR breve
ENCODING 728
SWIDTH 333 0
DWIDTH 6 0
BBX 6 5 0 13
BITMAP
5050
4510
4A50
5490
1540
ENDCHAR
STARTCHAR dotaccent
ENCODING 729
SWIDTH 166 0
DWIDTH 3 0
BBX 3 4 0 13
BITMAP
10
88
44
54
ENDCHAR
STARTCHAR ring
ENCODING 730
SWIDTH 309 0
DWIDTH 6 0
BBX 6 6 0 13
BITMAP
1540
1140
4510
A650
5540
1140
ENDCHAR
STARTCHAR ogonek
ENCODING 731
SWIDTH 226 0
DWIDTH 4 0
BBX 4 6 0 -4
BITMAP
10
14
44
48
62
15
ENDCHAR
STARTCHAR tilde
ENCODING 732
SWIDTH 410 0
DWIDTH 7 0
BBX 8 5 0 13
BITMAP
1624
1295
4944
5520
1150
ENDCHAR
STARTCHAR hungarumlaut
ENCODING 733
SWIDTH 361 0
DWIDTH 7 0
BBX 7 5 0 13
BITMAP
0410
1154
5610
9550
5140
ENDCHAR
STARTCHAR uni0312
ENCODING 786
SWIDTH 202 0
DWIDTH 4 0
BBX 4 5 0 8
BITMAP
14
11
44
94
10
ENDCHAR
STARTCHAR uni0315
ENCODING 789
SWIDTH 202 0
DWIDTH 4 0
BBX 4 5 0 8
BITMAP
14
11
44
94
10
ENDCHAR
STARTCHAR uni0326
ENCODING 806
SWIDTH 201 0
DWIDTH 4 0
BBX 4 5 0 -5
BITMAP
04
11
55
94
50
ENDCHAR
STARTCHAR Wgrave
ENCODING 7808
SWIDTH 735 0
DWIDTH 13 0
BBX 13 18 0 -1
BITMAP
00140000
00440000
00140000
00110000
00040100
55051580
45211440
41205040
55646440
61495140
11845100
10845100
15959500
04454100
05054500
05054400
05944400
01401000
ENDCHAR
STARTCHAR wgrave
ENCODING 7809
SWIDTH 735 0
DWIDTH 13 0
BBX 13 18 0 -1
BITMAP
00140000
00440000
00140000
00110000
00040100
55051580
45211440
41205040
55646440
61495140
11845100
10845100
15959500
04454100
05054500
05054400
05944400
01401000
ENDCHAR
STARTCHAR Wacute
ENCODING 7810
SWIDTH 735 0
DWIDTH 13 0
BBX 13 18 0 -1
BITMAP
00004000
00015000
00055000
00054000
00050100
55051580
45211440
41205040
55646440
61495140
11845100
10845100
15959500
04454100
05054500
05054400
05944400
01401000
ENDCHAR
STARTCHAR wacute
ENCODING 7811
SWIDTH 735 0
DWIDTH 13 0
BBX 13 18 0 -1
BITMAP
00004000
00015000
00055000
00054000
00050100
55051580
45211440
41205040
55646440
61495140
11845100
10845100
15959500
04454100
05054500
05054400
05944400
01401000
ENDCHAR
STARTCHAR Wdieresis
ENCODING 7812
SWIDTH 735 0
DWIDTH 13 0
BBX 13 17 0 -1
BITMAP
00104000
01565000
00551000
00514100
55051580
45211440
41205040
55646440
61495140
11845100
10845100
15959500
04454100
05054500
05054400
05944400
01401000
ENDCHAR
STARTCHAR wdieresis
ENCODING 7813
SWIDTH 735 0
DWIDTH 13 0
BBX 13 17 0 -1
BITMAP
00104000
01565000
00551000
00514100
55051580
45211440
41205040
55646440
61495140
11845100
10845100
15959500
04454100
05054500
05054400
05944400
01401000
ENDCHAR
STARTCHAR Ygrave
ENCODING 7922
SWIDTH 484 0
DWIDTH 9 0
BBX 10 17 -1 0
BITMAP
005000
021000
011000
005400
005140
250160
410410
104410
056940
051040
011100
008100
005500
010400
010400
051000
015000
ENDCHAR
STARTCHAR ygrave
ENCODING 7923
SWIDTH 484 0
DWIDTH 9 0
BBX 10 17 -1 0
BITMAP
005000
021000
011000
005400
005140
250160
410410
104410
056940
051040
011100
008100
005500
010400
010400
051000
015000
ENDCHAR
STARTCHAR endash
ENCODING 8211
SWIDTH 591 0
DWIDTH 11 0
BBX 10 4 0 4
BITMAP
155950
404410
404410
155550
ENDCHAR
STARTCHAR emdash
ENCODING 8212
SWIDTH 726 0
DWIDTH 13 0
BBX 13 4 0 4
BITMAP
15555500
40504440
40404040
15555500
ENDCHAR
STARTCHAR quoteleft
ENCODING 8216
SWIDTH 291 0
DWIDTH 5 0
BBX 5 7 0 6
BITMAP
0980
0440
2440
1540
4100
4100
5500
ENDCHAR
STARTCHAR quoteright
ENCODING 8217
SWIDTH 291 0
DWIDTH 5 0
BBX 5 7 0 6
BITMAP
0980
0440
2440
1540
4100
4100
5500
ENDCHAR
STARTCHAR quotesinglbase
ENCODING 8218
SWIDTH 228 0
DWIDTH 4 0
BBX 5 6 -1 -3
BITMAP
0500
0540
1040
4100
5500
1400
ENDCHAR
STARTCHAR quotedblleft
ENCODING 8220
SWIDTH 532 0
DWIDTH 10 0
BBX 10 8 0 6
BITMAP
000100
098580
044410
245440
155140
411100
414100
556500
ENDCHAR
STARTCHAR quotedblright
ENCODING 8221
SWIDTH 532 0
DWIDTH 10 0
BBX 10 8 0 6
BITMAP
000100
098580
044410
245440
155140
411100
414100
556500
ENDCHAR
STARTCHAR quotedblbase
ENCODING 8222
SWIDTH 448 0
DWIDTH 8 0
BBX 9 6 -1 -3
BITMAP
050500
054540
105040
414100
555500
141400
ENDCHAR
STARTCHAR dagger
ENCODING 8224
SWIDTH 453 0
DWIDTH 8 0
BBX 8 15 0 -1
BITMAP
0190
0420
0510
5925
4511
4965
1414
0410
0410
0550
0410
0410
0410
0410
0590
ENDCHAR
STARTCHAR daggerdbl
ENCODING 8225
SWIDTH 462 0
DWIDTH 8 0
BBX 8 15 0 -1
BITMAP
0150
0520
0110
5925
4511
5965
1414
0510
0410
1A65
4411
4421
1825
0410
0650
ENDCHAR
STARTCHAR bullet
ENCODING 8226
SWIDTH 275 0
DWIDTH 5 0
BBX 3 3 1 5
BITMAP
54
44
54
ENDCHAR
STARTCHAR ellipsis
ENCODING 8230
SWIDTH 605 0
DWIDTH 11 0
BBX 11 4 0 -1
BITMAP
545450
444544
548554
101010
ENDCHAR
STARTCHAR perthousand
ENCODING 8240
SWIDTH 1249 0
DWIDTH 22 0
BBX 22 13 0 0
BITMAP
144000000000
642054000000
455444000000
445110000000
445250000000
554510000000
505519545540
055455055460
000551654550
000445114510
000455515510
001054115110
000505581590
ENDCHAR
STARTCHAR guilsinglleft
ENCODING 8249
SWIDTH 359 0
DWIDTH 6 0
BBX 6 9 0 2
BITMAP
0040
0150
1410
4050
5200
5540
1410
0520
0140
ENDCHAR
STARTCHAR guilsinglright
ENCODING 8250
SWIDTH 359 0
DWIDTH 6 0
BBX 6 9 0 2
BITMAP
0400
1500
4140
1410
0520
1460
5050
5100
1400
ENDCHAR
STARTCHAR fraction
ENCODING 8260
SWIDTH 266 0
DWIDTH 5 0
BBX 5 12 0 0
BITMAP
0540
0440
0440
1500
1100
1100
1100
5500
4400
4400
4400
5400
ENDCHAR
STARTCHAR Euro
ENCODING 8364
SWIDTH 690 0
DWIDTH 12 0
BBX 12 14 0 -1
BITMAP
005540
004095
004041
049955
159400
114400
160400
564400
415400
561555
011541
025041
015555
005000
ENDCHAR
STARTCHAR partialdiff
ENCODING 8706
SWIDTH 519 0
DWIDTH 9 0
BBX 11 14 -1 -1
BITMAP
001500
005100
001100
001140
001580
006040
024440
090450
515550
159410
141910
050114
005250
000400
ENDCHAR
STARTCHAR minus
ENCODING 8722
SWIDTH 467 0
DWIDTH 8 0
BBX 8 4 0 4
BITMAP
1595
4041
4041
1555
ENDCHAR
STARTCHAR fi
ENCODING 64257
SWIDTH 741 0
DWIDTH 13 0
BBX 13 13 0 0
BITMAP
15550500
11645040
11105040
11555040
65002540
11541040
11041040
11541040
65542540
11001040
11001040
41001040
56001540
ENDCHAR
STARTCHAR fl
ENCODING 64258
SWIDTH 942 0
DWIDTH 17 0
BBX 18 13 0 0
BITMAP
1555050000
1164504000
1110504000
1155504000
6500254000
1154104000
1104104000
1154104000
6554254000
1100109040
1100105540
4100105010
5600159580
ENDCHAR
STARTCHAR .notdef
ENCODING -1
SWIDTH 200 0
DWIDTH 4 0
BBX 1 1 0 0
BITMAP
00
ENDCHAR
STARTCHAR .null
ENCODING -1
SWIDTH 0 0
DWIDTH 0 0
BBX 1 1 0 0
BITMAP
00
ENDCHAR
STARTCHAR nonmarkingreturn
ENCODING -1
SWIDTH 200 0
DWIDTH 4 0
BBX 1 1 0 0
BITMAP
00
ENDCHAR
ENDFONT
